<svg width="214" height="279" viewBox="0 0 214 279" fill="none" xmlns="http://www.w3.org/2000/svg">
<path d="M2.58381 19.3184V6.01836H11.1718V7.97536H5.01581V11.6994H9.99381V13.6184H5.01581V19.3184H2.58381ZM9.74889 19.3184L14.6129 6.01836H17.3489L22.2129 19.3184H19.6289L18.5649 16.2404H13.3779L12.2949 19.3184H9.74889ZM14.0429 14.3404H17.8999L15.9619 8.81136L14.0429 14.3404ZM25.0972 19.3184L20.2332 6.01836H22.8362L26.5982 16.8294L30.3792 6.01836H32.9442L28.0802 19.3184H25.0972Z" fill="white"/>
<path d="M1.34858 68.7271V55.427H5.88958C7.44758 55.427 8.72691 55.7057 9.72758 56.2631C10.7409 56.8077 11.4882 57.5804 11.9696 58.5811C12.4636 59.5691 12.7106 60.7344 12.7106 62.0771C12.7106 63.4197 12.4636 64.5914 11.9696 65.5921C11.4882 66.5801 10.7409 67.3527 9.72758 67.9101C8.72691 68.4547 7.44758 68.7271 5.88958 68.7271H1.34858ZM3.78058 66.6371H5.77558C6.89025 66.6371 7.77058 66.4597 8.41658 66.1051C9.06258 65.7377 9.52491 65.2184 9.80358 64.5471C10.0822 63.8631 10.2216 63.0397 10.2216 62.0771C10.2216 61.1271 10.0822 60.3101 9.80358 59.6261C9.52491 58.942 9.06258 58.4164 8.41658 58.0491C7.77058 57.6817 6.89025 57.4981 5.77558 57.4981H3.78058V66.6371ZM17.0509 68.9551C16.2402 68.9551 15.5752 68.8284 15.0559 68.5751C14.5366 68.3091 14.1502 67.9607 13.8969 67.5301C13.6436 67.0994 13.5169 66.6244 13.5169 66.1051C13.5169 65.2311 13.8589 64.5217 14.5429 63.9771C15.2269 63.4324 16.2529 63.1601 17.6209 63.1601H20.0149V62.9321C20.0149 62.2861 19.8312 61.8111 19.4639 61.5071C19.0966 61.2031 18.6406 61.0511 18.0959 61.0511C17.6019 61.0511 17.1712 61.1714 16.8039 61.4121C16.4366 61.6401 16.2086 61.9821 16.1199 62.4381H13.7449C13.8082 61.7541 14.0362 61.1587 14.4289 60.6521C14.8342 60.1454 15.3536 59.7591 15.9869 59.4931C16.6202 59.2144 17.3296 59.0751 18.1149 59.0751C19.4576 59.0751 20.5152 59.4107 21.2879 60.0821C22.0606 60.7534 22.4469 61.7034 22.4469 62.9321V68.7271H20.3759L20.1479 67.2071C19.8692 67.7137 19.4766 68.1317 18.9699 68.4611C18.4759 68.7904 17.8362 68.9551 17.0509 68.9551ZM17.6019 67.0551C18.2986 67.0551 18.8369 66.8271 19.2169 66.3711C19.6096 65.9151 19.8566 65.3514 19.9579 64.6801H17.8869C17.2409 64.6801 16.7786 64.8004 16.4999 65.0411C16.2212 65.2691 16.0819 65.5541 16.0819 65.8961C16.0819 66.2634 16.2212 66.5484 16.4999 66.7511C16.7786 66.9537 17.1459 67.0551 17.6019 67.0551ZM25.0812 57.8401C24.6379 57.8401 24.2705 57.7071 23.9792 57.441C23.7005 57.1751 23.5612 56.8394 23.5612 56.4341C23.5612 56.0287 23.7005 55.6994 23.9792 55.446C24.2705 55.1801 24.6379 55.0471 25.0812 55.0471C25.5245 55.0471 25.8855 55.1801 26.1642 55.446C26.4555 55.6994 26.6012 56.0287 26.6012 56.4341C26.6012 56.8394 26.4555 57.1751 26.1642 57.441C25.8855 57.7071 25.5245 57.8401 25.0812 57.8401ZM23.8652 68.7271V59.3031H26.2972V68.7271H23.8652ZM27.8381 68.7271V55.0471H30.2701V68.7271H27.8381ZM32.9356 72.9071L35.1206 68.1001H34.5506L30.8836 59.3031H33.5246L36.1656 65.9341L38.9206 59.3031H41.5046L35.5196 72.9071H32.9356ZM45.6839 68.7271V55.427H48.5719L52.8089 63.8631L56.9889 55.427H59.8769V68.7271H57.4449V59.5501L53.7399 66.8271H51.8209L48.1159 59.5501V68.7271H45.6839ZM62.7138 57.8401C62.2705 57.8401 61.9032 57.7071 61.6118 57.441C61.3332 57.1751 61.1938 56.8394 61.1938 56.4341C61.1938 56.0287 61.3332 55.6994 61.6118 55.446C61.9032 55.1801 62.2705 55.0471 62.7138 55.0471C63.1572 55.0471 63.5182 55.1801 63.7968 55.446C64.0882 55.6994 64.2338 56.0287 64.2338 56.4341C64.2338 56.8394 64.0882 57.1751 63.7968 57.441C63.5182 57.7071 63.1572 57.8401 62.7138 57.8401ZM61.4978 68.7271V59.3031H63.9298V68.7271H61.4978ZM64.5778 68.7271L67.9978 64.0151L64.5778 59.3031H67.1808L69.5748 62.6471L71.9498 59.3031H74.5718L71.1328 64.0151L74.5718 68.7271H71.9498L69.5748 65.3831L67.1808 68.7271H64.5778ZM80.1545 68.7271V58.2011L77.9695 58.7141V56.8521L81.1805 55.427H82.6815V68.7271H80.1545Z" fill="white"/>
<path d="M1.34858 118.136V104.836H5.88958C7.44758 104.836 8.72691 105.114 9.72758 105.672C10.7409 106.216 11.4882 106.989 11.9696 107.99C12.4636 108.978 12.7106 110.143 12.7106 111.486C12.7106 112.828 12.4636 114 11.9696 115.001C11.4882 115.989 10.7409 116.761 9.72758 117.319C8.72691 117.863 7.44758 118.136 5.88958 118.136H1.34858ZM3.78058 116.046H5.77558C6.89025 116.046 7.77058 115.868 8.41658 115.514C9.06258 115.146 9.52491 114.627 9.80358 113.956C10.0822 113.272 10.2216 112.448 10.2216 111.486C10.2216 110.536 10.0822 109.719 9.80358 109.035C9.52491 108.351 9.06258 107.825 8.41658 107.458C7.77058 107.09 6.89025 106.907 5.77558 106.907H3.78058V116.046ZM14.7329 107.249C14.2896 107.249 13.9222 107.116 13.6309 106.85C13.3522 106.584 13.2129 106.248 13.2129 105.843C13.2129 105.437 13.3522 105.108 13.6309 104.855C13.9222 104.589 14.2896 104.456 14.7329 104.456C15.1762 104.456 15.5372 104.589 15.8159 104.855C16.1072 105.108 16.2529 105.437 16.2529 105.843C16.2529 106.248 16.1072 106.584 15.8159 106.85C15.5372 107.116 15.1762 107.249 14.7329 107.249ZM13.5169 118.136V108.712H15.9489V118.136H13.5169ZM21.0048 118.364C20.1688 118.364 19.4342 118.231 18.8008 117.965C18.1675 117.686 17.6608 117.306 17.2808 116.825C16.9008 116.343 16.6728 115.786 16.5968 115.153H19.0478C19.1238 115.52 19.3265 115.837 19.6558 116.103C19.9978 116.356 20.4348 116.483 20.9668 116.483C21.4988 116.483 21.8852 116.375 22.1258 116.16C22.3792 115.944 22.5058 115.697 22.5058 115.419C22.5058 115.013 22.3285 114.741 21.9738 114.602C21.6192 114.45 21.1252 114.304 20.4918 114.165C20.0865 114.076 19.6748 113.968 19.2568 113.842C18.8388 113.715 18.4525 113.557 18.0978 113.367C17.7558 113.164 17.4772 112.911 17.2618 112.607C17.0465 112.29 16.9388 111.904 16.9388 111.448C16.9388 110.612 17.2682 109.909 17.9268 109.339C18.5982 108.769 19.5355 108.484 20.7388 108.484C21.8535 108.484 22.7402 108.743 23.3988 109.263C24.0702 109.782 24.4692 110.498 24.5958 111.41H22.2968C22.1575 110.713 21.6318 110.365 20.7198 110.365C20.2638 110.365 19.9092 110.453 19.6558 110.631C19.4152 110.808 19.2948 111.03 19.2948 111.296C19.2948 111.574 19.4785 111.796 19.8458 111.961C20.2132 112.125 20.7008 112.277 21.3088 112.417C21.9675 112.569 22.5692 112.74 23.1138 112.93C23.6712 113.107 24.1145 113.379 24.4438 113.747C24.7732 114.101 24.9378 114.614 24.9378 115.286C24.9505 115.868 24.7985 116.394 24.4818 116.863C24.1652 117.331 23.7092 117.699 23.1138 117.965C22.5185 118.231 21.8155 118.364 21.0048 118.364ZM30.3317 118.364C29.3691 118.364 28.5204 118.155 27.7857 117.737C27.0511 117.319 26.4684 116.736 26.0377 115.989C25.6197 115.241 25.4107 114.386 25.4107 113.424C25.4107 112.461 25.6197 111.606 26.0377 110.859C26.4684 110.111 27.0511 109.529 27.7857 109.111C28.5204 108.693 29.3691 108.484 30.3317 108.484C31.5351 108.484 32.5484 108.8 33.3717 109.434C34.1951 110.054 34.7207 110.916 34.9487 112.018H32.3837C32.2571 111.562 32.0037 111.207 31.6237 110.954C31.2564 110.688 30.8194 110.555 30.3127 110.555C29.6414 110.555 29.0714 110.808 28.6027 111.315C28.1341 111.821 27.8997 112.524 27.8997 113.424C27.8997 114.323 28.1341 115.026 28.6027 115.533C29.0714 116.039 29.6414 116.293 30.3127 116.293C30.8194 116.293 31.2564 116.166 31.6237 115.913C32.0037 115.659 32.2571 115.298 32.3837 114.83H34.9487C34.7207 115.894 34.1951 116.749 33.3717 117.395C32.5484 118.041 31.5351 118.364 30.3317 118.364ZM40.2518 118.364C39.3398 118.364 38.5165 118.155 37.7818 117.737C37.0598 117.319 36.4835 116.742 36.0528 116.008C35.6348 115.26 35.4258 114.399 35.4258 113.424C35.4258 112.448 35.6412 111.593 36.0718 110.859C36.5025 110.111 37.0788 109.529 37.8008 109.111C38.5355 108.693 39.3588 108.484 40.2708 108.484C41.1702 108.484 41.9808 108.693 42.7028 109.111C43.4375 109.529 44.0138 110.111 44.4318 110.859C44.8625 111.593 45.0778 112.448 45.0778 113.424C45.0778 114.399 44.8625 115.26 44.4318 116.008C44.0138 116.742 43.4375 117.319 42.7028 117.737C41.9682 118.155 41.1512 118.364 40.2518 118.364ZM40.2518 116.255C40.8852 116.255 41.4362 116.02 41.9048 115.552C42.3735 115.07 42.6078 114.361 42.6078 113.424C42.6078 112.486 42.3735 111.783 41.9048 111.315C41.4362 110.833 40.8915 110.593 40.2708 110.593C39.6248 110.593 39.0675 110.833 38.5988 111.315C38.1428 111.783 37.9148 112.486 37.9148 113.424C37.9148 114.361 38.1428 115.07 38.5988 115.552C39.0675 116.02 39.6185 116.255 40.2518 116.255ZM47.9569 118.136L44.4989 108.712H47.0449L49.4389 115.837L51.8329 108.712H54.3789L50.9019 118.136H47.9569ZM58.6505 118.364C57.7005 118.364 56.8582 118.161 56.1235 117.756C55.3888 117.35 54.8125 116.78 54.3945 116.046C53.9765 115.311 53.7675 114.462 53.7675 113.5C53.7675 112.524 53.9702 111.657 54.3755 110.897C54.7935 110.137 55.3635 109.548 56.0855 109.13C56.8202 108.699 57.6815 108.484 58.6695 108.484C59.5942 108.484 60.4112 108.686 61.1205 109.092C61.8298 109.497 62.3808 110.054 62.7735 110.764C63.1788 111.46 63.3815 112.239 63.3815 113.101C63.3815 113.24 63.3752 113.386 63.3625 113.538C63.3625 113.69 63.3562 113.848 63.3435 114.013H56.1805C56.2312 114.747 56.4845 115.324 56.9405 115.742C57.4092 116.16 57.9728 116.369 58.6315 116.369C59.1255 116.369 59.5372 116.261 59.8665 116.046C60.2085 115.818 60.4618 115.526 60.6265 115.172H63.0965C62.9192 115.767 62.6215 116.312 62.2035 116.806C61.7982 117.287 61.2915 117.667 60.6835 117.946C60.0882 118.224 59.4105 118.364 58.6505 118.364ZM58.6695 110.46C58.0742 110.46 57.5485 110.631 57.0925 110.973C56.6365 111.302 56.3452 111.809 56.2185 112.493H60.9115C60.8735 111.872 60.6455 111.378 60.2275 111.011C59.8095 110.643 59.2902 110.46 58.6695 110.46ZM64.0495 118.136V108.712H66.2155L66.4435 110.479C66.7855 109.871 67.2478 109.389 67.8305 109.035C68.4258 108.667 69.1225 108.484 69.9205 108.484V111.049H69.2365C68.7045 111.049 68.2295 111.131 67.8115 111.296C67.3935 111.46 67.0641 111.745 66.8235 112.151C66.5955 112.556 66.4815 113.12 66.4815 113.842V118.136H64.0495ZM76.11 118.136L72.595 104.836H75.198L77.592 115.419L80.404 104.836H83.083L85.819 115.419L88.213 104.836H90.835L87.225 118.136H84.337L81.696 108.275L78.979 118.136H76.11ZM94.7401 118.364C93.7901 118.364 92.9478 118.161 92.2131 117.756C91.4784 117.35 90.9021 116.78 90.4841 116.046C90.0661 115.311 89.8571 114.462 89.8571 113.5C89.8571 112.524 90.0598 111.657 90.4651 110.897C90.8831 110.137 91.4531 109.548 92.1751 109.13C92.9098 108.699 93.7711 108.484 94.7591 108.484C95.6838 108.484 96.5008 108.686 97.2101 109.092C97.9194 109.497 98.4704 110.054 98.8631 110.764C99.2684 111.46 99.4711 112.239 99.4711 113.101C99.4711 113.24 99.4648 113.386 99.4521 113.538C99.4521 113.69 99.4458 113.848 99.4331 114.013H92.2701C92.3208 114.747 92.5741 115.324 93.0301 115.742C93.4988 116.16 94.0624 116.369 94.7211 116.369C95.2151 116.369 95.6268 116.261 95.9561 116.046C96.2981 115.818 96.5514 115.526 96.7161 115.172H99.1861C99.0088 115.767 98.7111 116.312 98.2931 116.806C97.8878 117.287 97.3811 117.667 96.7731 117.946C96.1778 118.224 95.5001 118.364 94.7401 118.364ZM94.7591 110.46C94.1638 110.46 93.6381 110.631 93.1821 110.973C92.7261 111.302 92.4348 111.809 92.3081 112.493H97.0011C96.9631 111.872 96.7351 111.378 96.3171 111.011C95.8991 110.643 95.3798 110.46 94.7591 110.46ZM104.718 118.364C103.768 118.364 102.926 118.161 102.191 117.756C101.456 117.35 100.88 116.78 100.462 116.046C100.044 115.311 99.8351 114.462 99.8351 113.5C99.8351 112.524 100.038 111.657 100.443 110.897C100.861 110.137 101.431 109.548 102.153 109.13C102.888 108.699 103.749 108.484 104.737 108.484C105.662 108.484 106.479 108.686 107.188 109.092C107.897 109.497 108.448 110.054 108.841 110.764C109.246 111.46 109.449 112.239 109.449 113.101C109.449 113.24 109.443 113.386 109.43 113.538C109.43 113.69 109.424 113.848 109.411 114.013H102.248C102.299 114.747 102.552 115.324 103.008 115.742C103.477 116.16 104.04 116.369 104.699 116.369C105.193 116.369 105.605 116.261 105.934 116.046C106.276 115.818 106.529 115.526 106.694 115.172H109.164C108.987 115.767 108.689 116.312 108.271 116.806C107.866 117.287 107.359 117.667 106.751 117.946C106.156 118.224 105.478 118.364 104.718 118.364ZM104.737 110.46C104.142 110.46 103.616 110.631 103.16 110.973C102.704 111.302 102.413 111.809 102.286 112.493H106.979C106.941 111.872 106.713 111.378 106.295 111.011C105.877 110.643 105.358 110.46 104.737 110.46ZM110.117 118.136V104.456H112.549V112.531L115.893 108.712H118.781L114.924 113.006L119.408 118.136H116.368L112.549 113.405V118.136H110.117ZM119.538 118.136V104.456H121.97V118.136H119.538ZM124.256 122.316L126.441 117.509H125.871L122.204 108.712H124.845L127.486 115.343L130.241 108.712H132.825L126.84 122.316H124.256Z" fill="white"/>
<path d="M1.34858 216.953V203.653H5.88958C7.44758 203.653 8.72691 203.932 9.72758 204.489C10.7409 205.034 11.4882 205.807 11.9696 206.807C12.4636 207.795 12.7106 208.961 12.7106 210.303C12.7106 211.646 12.4636 212.818 11.9696 213.818C11.4882 214.806 10.7409 215.579 9.72758 216.136C8.72691 216.681 7.44758 216.953 5.88958 216.953H1.34858ZM3.78058 214.863H5.77558C6.89025 214.863 7.77058 214.686 8.41658 214.331C9.06258 213.964 9.52491 213.445 9.80358 212.773C10.0822 212.089 10.2216 211.266 10.2216 210.303C10.2216 209.353 10.0822 208.536 9.80358 207.852C9.52491 207.168 9.06258 206.643 8.41658 206.275C7.77058 205.908 6.89025 205.724 5.77558 205.724H3.78058V214.863ZM16.4809 217.181C15.6702 217.181 15.0052 217.055 14.4859 216.801C13.9666 216.535 13.5802 216.187 13.3269 215.756C13.0736 215.326 12.9469 214.851 12.9469 214.331C12.9469 213.457 13.2889 212.748 13.9729 212.203C14.6569 211.659 15.6829 211.386 17.0509 211.386H19.4449V211.158C19.4449 210.512 19.2612 210.037 18.8939 209.733C18.5266 209.429 18.0706 209.277 17.5259 209.277C17.0319 209.277 16.6012 209.398 16.2339 209.638C15.8666 209.866 15.6386 210.208 15.5499 210.664H13.1749C13.2382 209.98 13.4662 209.385 13.8589 208.878C14.2642 208.372 14.7836 207.985 15.4169 207.719C16.0502 207.441 16.7596 207.301 17.5449 207.301C18.8876 207.301 19.9452 207.637 20.7179 208.308C21.4906 208.98 21.8769 209.93 21.8769 211.158V216.953H19.8059L19.5779 215.433C19.2992 215.94 18.9066 216.358 18.3999 216.687C17.9059 217.017 17.2662 217.181 16.4809 217.181ZM17.0319 215.281C17.7286 215.281 18.2669 215.053 18.6469 214.597C19.0396 214.141 19.2866 213.578 19.3879 212.906H17.3169C16.6709 212.906 16.2086 213.027 15.9299 213.267C15.6512 213.495 15.5119 213.78 15.5119 214.122C15.5119 214.49 15.6512 214.775 15.9299 214.977C16.2086 215.18 16.5759 215.281 17.0319 215.281ZM22.6302 216.953V207.529H24.7772L24.9672 209.125C25.2585 208.568 25.6765 208.125 26.2212 207.795C26.7785 207.466 27.4309 207.301 28.1782 207.301C29.3435 207.301 30.2492 207.669 30.8952 208.403C31.5412 209.138 31.8642 210.215 31.8642 211.633V216.953H29.4322V211.861C29.4322 211.051 29.2675 210.43 28.9382 209.999C28.6089 209.569 28.0959 209.353 27.3992 209.353C26.7152 209.353 26.1515 209.594 25.7082 210.075C25.2775 210.557 25.0622 211.228 25.0622 212.089V216.953H22.6302ZM37.2393 217.181C36.2766 217.181 35.428 216.972 34.6933 216.554C33.9586 216.136 33.376 215.554 32.9453 214.806C32.5273 214.059 32.3183 213.204 32.3183 212.241C32.3183 211.279 32.5273 210.424 32.9453 209.676C33.376 208.929 33.9586 208.346 34.6933 207.928C35.428 207.51 36.2766 207.301 37.2393 207.301C38.4426 207.301 39.456 207.618 40.2793 208.251C41.1026 208.872 41.6283 209.733 41.8563 210.835H39.2913C39.1646 210.379 38.9113 210.025 38.5313 209.771C38.164 209.505 37.727 209.372 37.2203 209.372C36.549 209.372 35.979 209.626 35.5103 210.132C35.0416 210.639 34.8073 211.342 34.8073 212.241C34.8073 213.141 35.0416 213.844 35.5103 214.35C35.979 214.857 36.549 215.11 37.2203 215.11C37.727 215.11 38.164 214.984 38.5313 214.73C38.9113 214.477 39.1646 214.116 39.2913 213.647H41.8563C41.6283 214.711 41.1026 215.566 40.2793 216.212C39.456 216.858 38.4426 217.181 37.2393 217.181ZM47.0264 217.181C46.0764 217.181 45.234 216.979 44.4994 216.573C43.7647 216.168 43.1884 215.598 42.7704 214.863C42.3524 214.129 42.1434 213.28 42.1434 212.317C42.1434 211.342 42.346 210.474 42.7514 209.714C43.1694 208.954 43.7394 208.365 44.4614 207.947C45.196 207.517 46.0574 207.301 47.0454 207.301C47.97 207.301 48.787 207.504 49.4964 207.909C50.2057 208.315 50.7567 208.872 51.1494 209.581C51.5547 210.278 51.7574 211.057 51.7574 211.918C51.7574 212.058 51.751 212.203 51.7384 212.355C51.7384 212.507 51.732 212.666 51.7194 212.83H44.5564C44.607 213.565 44.8604 214.141 45.3164 214.559C45.785 214.977 46.3487 215.186 47.0074 215.186C47.5014 215.186 47.913 215.079 48.2424 214.863C48.5844 214.635 48.8377 214.344 49.0024 213.989H51.4724C51.295 214.585 50.9974 215.129 50.5794 215.623C50.174 216.105 49.6674 216.485 49.0594 216.763C48.464 217.042 47.7864 217.181 47.0264 217.181ZM47.0454 209.277C46.45 209.277 45.9244 209.448 45.4684 209.79C45.0124 210.12 44.721 210.626 44.5944 211.31H49.2874C49.2494 210.69 49.0214 210.196 48.6034 209.828C48.1854 209.461 47.666 209.277 47.0454 209.277ZM54.3972 219.062L59.1472 202.19H61.5222L56.7532 219.062H54.3972ZM64.6416 216.953V203.653H73.3246V205.61H67.0736V209.258H72.7546V211.158H67.0736V214.996H73.3246V216.953H64.6416ZM74.0015 216.953V203.273H76.4335V216.953H74.0015ZM81.93 217.181C80.98 217.181 80.1376 216.979 79.403 216.573C78.6683 216.168 78.092 215.598 77.674 214.863C77.256 214.129 77.047 213.28 77.047 212.317C77.047 211.342 77.2496 210.474 77.655 209.714C78.073 208.954 78.643 208.365 79.365 207.947C80.0996 207.517 80.961 207.301 81.949 207.301C82.8736 207.301 83.6906 207.504 84.4 207.909C85.1093 208.315 85.6603 208.872 86.053 209.581C86.4583 210.278 86.661 211.057 86.661 211.918C86.661 212.058 86.6546 212.203 86.642 212.355C86.642 212.507 86.6356 212.666 86.623 212.83H79.46C79.5106 213.565 79.764 214.141 80.22 214.559C80.6886 214.977 81.2523 215.186 81.911 215.186C82.405 215.186 82.8166 215.079 83.146 214.863C83.488 214.635 83.7413 214.344 83.906 213.989H86.376C86.1986 214.585 85.901 215.129 85.483 215.623C85.0776 216.105 84.571 216.485 83.963 216.763C83.3676 217.042 82.69 217.181 81.93 217.181ZM81.949 209.277C81.3536 209.277 80.828 209.448 80.372 209.79C79.916 210.12 79.6246 210.626 79.498 211.31H84.191C84.153 210.69 83.925 210.196 83.507 209.828C83.089 209.461 82.5696 209.277 81.949 209.277ZM91.7559 217.181C90.7933 217.181 89.9446 216.972 89.2099 216.554C88.4753 216.136 87.8926 215.554 87.4619 214.806C87.0439 214.059 86.8349 213.204 86.8349 212.241C86.8349 211.279 87.0439 210.424 87.4619 209.676C87.8926 208.929 88.4753 208.346 89.2099 207.928C89.9446 207.51 90.7933 207.301 91.7559 207.301C92.9593 207.301 93.9726 207.618 94.7959 208.251C95.6193 208.872 96.1449 209.733 96.3729 210.835H93.8079C93.6813 210.379 93.4279 210.025 93.0479 209.771C92.6806 209.505 92.2436 209.372 91.7369 209.372C91.0656 209.372 90.4956 209.626 90.0269 210.132C89.5583 210.639 89.3239 211.342 89.3239 212.241C89.3239 213.141 89.5583 213.844 90.0269 214.35C90.4956 214.857 91.0656 215.11 91.7369 215.11C92.2436 215.11 92.6806 214.984 93.0479 214.73C93.4279 214.477 93.6813 214.116 93.8079 213.647H96.3729C96.1449 214.711 95.6193 215.566 94.7959 216.212C93.9726 216.858 92.9593 217.181 91.7559 217.181ZM101.033 216.953C100.045 216.953 99.2535 216.713 98.6581 216.231C98.0628 215.75 97.7651 214.895 97.7651 213.666V209.562H96.1501V207.529H97.7651L98.0501 205.002H100.197V207.529H102.743V209.562H100.197V213.685C100.197 214.141 100.292 214.458 100.482 214.635C100.685 214.8 101.027 214.882 101.508 214.882H102.686V216.953H101.033ZM103.264 216.953V207.529H105.43L105.658 209.296C106 208.688 106.462 208.207 107.045 207.852C107.64 207.485 108.337 207.301 109.135 207.301V209.866H108.451C107.919 209.866 107.444 209.949 107.026 210.113C106.608 210.278 106.278 210.563 106.038 210.968C105.81 211.374 105.696 211.937 105.696 212.659V216.953H103.264ZM113.584 217.181C112.672 217.181 111.849 216.972 111.114 216.554C110.392 216.136 109.816 215.56 109.385 214.825C108.967 214.078 108.758 213.217 108.758 212.241C108.758 211.266 108.974 210.411 109.404 209.676C109.835 208.929 110.411 208.346 111.133 207.928C111.868 207.51 112.691 207.301 113.603 207.301C114.503 207.301 115.313 207.51 116.035 207.928C116.77 208.346 117.346 208.929 117.764 209.676C118.195 210.411 118.41 211.266 118.41 212.241C118.41 213.217 118.195 214.078 117.764 214.825C117.346 215.56 116.77 216.136 116.035 216.554C115.301 216.972 114.484 217.181 113.584 217.181ZM113.584 215.072C114.218 215.072 114.769 214.838 115.237 214.369C115.706 213.888 115.94 213.179 115.94 212.241C115.94 211.304 115.706 210.601 115.237 210.132C114.769 209.651 114.224 209.41 113.603 209.41C112.957 209.41 112.4 209.651 111.931 210.132C111.475 210.601 111.247 211.304 111.247 212.241C111.247 213.179 111.475 213.888 111.931 214.369C112.4 214.838 112.951 215.072 113.584 215.072ZM119.017 216.953V207.529H121.164L121.354 209.125C121.646 208.568 122.064 208.125 122.608 207.795C123.166 207.466 123.818 207.301 124.565 207.301C125.731 207.301 126.636 207.669 127.282 208.403C127.928 209.138 128.251 210.215 128.251 211.633V216.953H125.819V211.861C125.819 211.051 125.655 210.43 125.325 209.999C124.996 209.569 124.483 209.353 123.786 209.353C123.102 209.353 122.539 209.594 122.095 210.075C121.665 210.557 121.449 211.228 121.449 212.089V216.953H119.017ZM130.32 206.066C129.877 206.066 129.51 205.933 129.218 205.667C128.94 205.401 128.8 205.066 128.8 204.66C128.8 204.255 128.94 203.926 129.218 203.672C129.51 203.406 129.877 203.273 130.32 203.273C130.764 203.273 131.125 203.406 131.403 203.672C131.695 203.926 131.84 204.255 131.84 204.66C131.84 205.066 131.695 205.401 131.403 205.667C131.125 205.933 130.764 206.066 130.32 206.066ZM129.104 216.953V207.529H131.536V216.953H129.104ZM131.614 216.953L135.034 212.241L131.614 207.529H134.217L136.611 210.873L138.986 207.529H141.608L138.169 212.241L141.608 216.953H138.986L136.611 213.609L134.217 216.953H131.614ZM144.607 216.953V203.653H147.495L151.732 212.089L155.912 203.653H158.8V216.953H156.368V207.776L152.663 215.053H150.744L147.039 207.776V216.953H144.607ZM161.067 206.066C160.624 206.066 160.256 205.933 159.965 205.667C159.686 205.401 159.547 205.066 159.547 204.66C159.547 204.255 159.686 203.926 159.965 203.672C160.256 203.406 160.624 203.273 161.067 203.273C161.51 203.273 161.871 203.406 162.15 203.672C162.441 203.926 162.587 204.255 162.587 204.66C162.587 205.066 162.441 205.401 162.15 205.667C161.871 205.933 161.51 206.066 161.067 206.066ZM159.851 216.953V207.529H162.283V216.953H159.851ZM162.361 216.953L165.781 212.241L162.361 207.529H164.964L167.358 210.873L169.733 207.529H172.355L168.916 212.241L172.355 216.953H169.733L167.358 213.609L164.964 216.953H162.361Z" fill="white"/>
<path d="M1.34858 266.362V253.062H10.0316V255.019H3.78058V258.667H9.46158V260.567H3.78058V264.405H10.0316V266.362H1.34858ZM11.3355 266.362V253.062H15.8765C17.4345 253.062 18.7138 253.341 19.7145 253.898C20.7278 254.443 21.4751 255.216 21.9565 256.216C22.4505 257.204 22.6975 258.37 22.6975 259.712C22.6975 261.055 22.4505 262.227 21.9565 263.227C21.4751 264.215 20.7278 264.988 19.7145 265.545C18.7138 266.09 17.4345 266.362 15.8765 266.362H11.3355ZM13.7675 264.272H15.7625C16.8771 264.272 17.7575 264.095 18.4035 263.74C19.0495 263.373 19.5118 262.854 19.7905 262.182C20.0691 261.498 20.2085 260.675 20.2085 259.712C20.2085 258.762 20.0691 257.945 19.7905 257.261C19.5118 256.577 19.0495 256.052 18.4035 255.684C17.7575 255.317 16.8771 255.133 15.7625 255.133H13.7675V264.272ZM23.8458 266.362V253.062H26.7338L30.9708 261.498L35.1508 253.062H38.0388V266.362H35.6068V257.185L31.9018 264.462H29.9828L26.2778 257.185V266.362H23.8458ZM42.2965 268.471L47.0465 251.599H49.4215L44.6525 268.471H42.2965ZM53.681 266.362V253.062H58.602C59.666 253.062 60.5463 253.24 61.243 253.594C61.9396 253.949 62.459 254.437 62.801 255.057C63.143 255.678 63.314 256.375 63.314 257.147C63.314 257.882 63.1493 258.56 62.82 259.18C62.4906 259.788 61.9776 260.282 61.281 260.662C60.5843 261.03 59.6913 261.213 58.602 261.213H56.113V266.362H53.681ZM56.113 259.237H58.45C59.2986 259.237 59.9066 259.054 60.274 258.686C60.654 258.306 60.844 257.793 60.844 257.147C60.844 256.489 60.654 255.976 60.274 255.608C59.9066 255.228 59.2986 255.038 58.45 255.038H56.113V259.237ZM68.2071 266.59C67.2951 266.59 66.4717 266.381 65.7371 265.963C65.0151 265.545 64.4387 264.969 64.0081 264.234C63.5901 263.487 63.3811 262.626 63.3811 261.65C63.3811 260.675 63.5964 259.82 64.0271 259.085C64.4577 258.338 65.0341 257.755 65.7561 257.337C66.4907 256.919 67.3141 256.71 68.2261 256.71C69.1254 256.71 69.9361 256.919 70.6581 257.337C71.3927 257.755 71.9691 258.338 72.3871 259.085C72.8177 259.82 73.0331 260.675 73.0331 261.65C73.0331 262.626 72.8177 263.487 72.3871 264.234C71.9691 264.969 71.3927 265.545 70.6581 265.963C69.9234 266.381 69.1064 266.59 68.2071 266.59ZM68.2071 264.481C68.8404 264.481 69.3914 264.247 69.8601 263.778C70.3287 263.297 70.5631 262.588 70.5631 261.65C70.5631 260.713 70.3287 260.01 69.8601 259.541C69.3914 259.06 68.8467 258.819 68.2261 258.819C67.5801 258.819 67.0227 259.06 66.5541 259.541C66.0981 260.01 65.8701 260.713 65.8701 261.65C65.8701 262.588 66.0981 263.297 66.5541 263.778C67.0227 264.247 67.5737 264.481 68.2071 264.481ZM74.21 270.542V256.938H76.376L76.642 258.287C76.946 257.869 77.345 257.502 77.839 257.185C78.3457 256.869 78.998 256.71 79.796 256.71C80.6827 256.71 81.4743 256.926 82.171 257.356C82.8677 257.787 83.4187 258.376 83.824 259.123C84.2293 259.871 84.432 260.719 84.432 261.669C84.432 262.619 84.2293 263.468 83.824 264.215C83.4187 264.95 82.8677 265.533 82.171 265.963C81.4743 266.381 80.6827 266.59 79.796 266.59C79.0867 266.59 78.466 266.457 77.934 266.191C77.402 265.925 76.9713 265.552 76.642 265.07V270.542H74.21ZM79.283 264.462C80.0557 264.462 80.6953 264.203 81.202 263.683C81.7087 263.164 81.962 262.493 81.962 261.669C81.962 260.846 81.7087 260.168 81.202 259.636C80.6953 259.104 80.0557 258.838 79.283 258.838C78.4977 258.838 77.8517 259.104 77.345 259.636C76.851 260.156 76.604 260.827 76.604 261.65C76.604 262.474 76.851 263.151 77.345 263.683C77.8517 264.203 78.4977 264.462 79.283 264.462ZM89.141 266.59C87.963 266.59 87.051 266.223 86.405 265.488C85.7717 264.754 85.455 263.677 85.455 262.258V256.938H87.868V262.03C87.868 262.841 88.0327 263.462 88.362 263.892C88.6914 264.323 89.2107 264.538 89.92 264.538C90.5914 264.538 91.1424 264.298 91.573 263.816C92.0164 263.335 92.238 262.664 92.238 261.802V256.938H94.67V266.362H92.523L92.333 264.766C92.0417 265.324 91.6174 265.767 91.06 266.096C90.5154 266.426 89.8757 266.59 89.141 266.59ZM96.1691 266.362V252.682H98.6011V266.362H96.1691ZM103.338 266.59C102.527 266.59 101.862 266.464 101.343 266.21C100.823 265.944 100.437 265.596 100.184 265.165C99.9303 264.735 99.8036 264.26 99.8036 263.74C99.8036 262.866 100.146 262.157 100.83 261.612C101.514 261.068 102.54 260.795 103.908 260.795H106.302V260.567C106.302 259.921 106.118 259.446 105.751 259.142C105.383 258.838 104.927 258.686 104.383 258.686C103.889 258.686 103.458 258.807 103.091 259.047C102.723 259.275 102.495 259.617 102.407 260.073H100.032C100.095 259.389 100.323 258.794 100.716 258.287C101.121 257.781 101.64 257.394 102.274 257.128C102.907 256.85 103.616 256.71 104.402 256.71C105.744 256.71 106.802 257.046 107.575 257.717C108.347 258.389 108.734 259.339 108.734 260.567V266.362H106.663L106.435 264.842C106.156 265.349 105.763 265.767 105.257 266.096C104.763 266.426 104.123 266.59 103.338 266.59ZM103.889 264.69C104.585 264.69 105.124 264.462 105.504 264.006C105.896 263.55 106.143 262.987 106.245 262.315H104.174C103.528 262.315 103.065 262.436 102.787 262.676C102.508 262.904 102.369 263.189 102.369 263.531C102.369 263.899 102.508 264.184 102.787 264.386C103.065 264.589 103.433 264.69 103.889 264.69ZM110.057 266.362V256.938H112.223L112.451 258.705C112.793 258.097 113.255 257.616 113.838 257.261C114.433 256.894 115.13 256.71 115.928 256.71V259.275H115.244C114.712 259.275 114.237 259.358 113.819 259.522C113.401 259.687 113.072 259.972 112.831 260.377C112.603 260.783 112.489 261.346 112.489 262.068V266.362H110.057Z" fill="white"/>
<path d="M1.34858 167.545V154.245H4.23658L8.47358 162.681L12.6536 154.245H15.5416V167.545H13.1096V158.368L9.40458 165.645H7.48558L3.78058 158.368V167.545H1.34858ZM19.9365 167.773C19.1259 167.773 18.4609 167.646 17.9415 167.393C17.4222 167.127 17.0358 166.778 16.7825 166.348C16.5292 165.917 16.4025 165.442 16.4025 164.923C16.4025 164.049 16.7445 163.339 17.4285 162.795C18.1125 162.25 19.1385 161.978 20.5065 161.978H22.9005V161.75C22.9005 161.104 22.7169 160.629 22.3495 160.325C21.9822 160.021 21.5262 159.869 20.9815 159.869C20.4875 159.869 20.0568 159.989 19.6895 160.23C19.3222 160.458 19.0942 160.8 19.0055 161.256H16.6305C16.6938 160.572 16.9218 159.976 17.3145 159.47C17.7199 158.963 18.2392 158.577 18.8725 158.311C19.5058 158.032 20.2152 157.893 21.0005 157.893C22.3432 157.893 23.4009 158.228 24.1735 158.9C24.9462 159.571 25.3325 160.521 25.3325 161.75V167.545H23.2615L23.0335 166.025C22.7549 166.531 22.3622 166.949 21.8555 167.279C21.3615 167.608 20.7219 167.773 19.9365 167.773ZM20.4875 165.873C21.1842 165.873 21.7225 165.645 22.1025 165.189C22.4952 164.733 22.7422 164.169 22.8435 163.498H20.7725C20.1265 163.498 19.6642 163.618 19.3855 163.859C19.1069 164.087 18.9675 164.372 18.9675 164.714C18.9675 165.081 19.1069 165.366 19.3855 165.569C19.6642 165.771 20.0315 165.873 20.4875 165.873ZM26.2758 167.545V153.865H28.7078V167.545H26.2758ZM33.0643 167.773C32.2537 167.773 31.5887 167.646 31.0693 167.393C30.55 167.127 30.1637 166.778 29.9103 166.348C29.657 165.917 29.5303 165.442 29.5303 164.923C29.5303 164.049 29.8723 163.339 30.5563 162.795C31.2403 162.25 32.2663 161.978 33.6343 161.978H36.0283V161.75C36.0283 161.104 35.8447 160.629 35.4773 160.325C35.11 160.021 34.654 159.869 34.1093 159.869C33.6153 159.869 33.1847 159.989 32.8173 160.23C32.45 160.458 32.222 160.8 32.1333 161.256H29.7583C29.8217 160.572 30.0497 159.976 30.4423 159.47C30.8477 158.963 31.367 158.577 32.0003 158.311C32.6337 158.032 33.343 157.893 34.1283 157.893C35.471 157.893 36.5287 158.228 37.3013 158.9C38.074 159.571 38.4603 160.521 38.4603 161.75V167.545H36.3893L36.1613 166.025C35.8827 166.531 35.49 166.949 34.9833 167.279C34.4893 167.608 33.8497 167.773 33.0643 167.773ZM33.6153 165.873C34.312 165.873 34.8503 165.645 35.2303 165.189C35.623 164.733 35.87 164.169 35.9713 163.498H33.9003C33.2543 163.498 32.792 163.618 32.5133 163.859C32.2347 164.087 32.0953 164.372 32.0953 164.714C32.0953 165.081 32.2347 165.366 32.5133 165.569C32.792 165.771 33.1593 165.873 33.6153 165.873ZM40.2662 171.725L42.4512 166.918H41.8812L38.2142 158.121H40.8552L43.4962 164.752L46.2512 158.121H48.8352L42.8502 171.725H40.2662ZM51.5544 167.773C50.7438 167.773 50.0788 167.646 49.5594 167.393C49.0401 167.127 48.6538 166.778 48.4004 166.348C48.1471 165.917 48.0204 165.442 48.0204 164.923C48.0204 164.049 48.3624 163.339 49.0464 162.795C49.7304 162.25 50.7564 161.978 52.1244 161.978H54.5184V161.75C54.5184 161.104 54.3348 160.629 53.9674 160.325C53.6001 160.021 53.1441 159.869 52.5994 159.869C52.1054 159.869 51.6748 159.989 51.3074 160.23C50.9401 160.458 50.7121 160.8 50.6234 161.256H48.2484C48.3118 160.572 48.5398 159.976 48.9324 159.47C49.3378 158.963 49.8571 158.577 50.4904 158.311C51.1238 158.032 51.8331 157.893 52.6184 157.893C53.9611 157.893 55.0188 158.228 55.7914 158.9C56.5641 159.571 56.9504 160.521 56.9504 161.75V167.545H54.8794L54.6514 166.025C54.3728 166.531 53.9801 166.949 53.4734 167.279C52.9794 167.608 52.3398 167.773 51.5544 167.773ZM52.1054 165.873C52.8021 165.873 53.3404 165.645 53.7204 165.189C54.1131 164.733 54.3601 164.169 54.4614 163.498H52.3904C51.7444 163.498 51.2821 163.618 51.0034 163.859C50.7248 164.087 50.5854 164.372 50.5854 164.714C50.5854 165.081 50.7248 165.366 51.0034 165.569C51.2821 165.771 51.6494 165.873 52.1054 165.873ZM57.8938 167.545V153.865H60.3258V167.545H57.8938ZM64.6823 167.773C63.8716 167.773 63.2066 167.646 62.6873 167.393C62.1679 167.127 61.7816 166.778 61.5283 166.348C61.2749 165.917 61.1483 165.442 61.1483 164.923C61.1483 164.049 61.4903 163.339 62.1743 162.795C62.8583 162.25 63.8843 161.978 65.2523 161.978H67.6463V161.75C67.6463 161.104 67.4626 160.629 67.0953 160.325C66.7279 160.021 66.2719 159.869 65.7273 159.869C65.2333 159.869 64.8026 159.989 64.4353 160.23C64.0679 160.458 63.8399 160.8 63.7513 161.256H61.3763C61.4396 160.572 61.6676 159.976 62.0603 159.47C62.4656 158.963 62.9849 158.577 63.6183 158.311C64.2516 158.032 64.9609 157.893 65.7463 157.893C67.0889 157.893 68.1466 158.228 68.9193 158.9C69.6919 159.571 70.0783 160.521 70.0783 161.75V167.545H68.0073L67.7793 166.025C67.5006 166.531 67.1079 166.949 66.6013 167.279C66.1073 167.608 65.4676 167.773 64.6823 167.773ZM65.2333 165.873C65.9299 165.873 66.4683 165.645 66.8483 165.189C67.2409 164.733 67.4879 164.169 67.5893 163.498H65.5183C64.8723 163.498 64.4099 163.618 64.1313 163.859C63.8526 164.087 63.7133 164.372 63.7133 164.714C63.7133 165.081 63.8526 165.366 64.1313 165.569C64.4099 165.771 64.7773 165.873 65.2333 165.873ZM71.0216 167.545V158.121H73.1686L73.3776 159.394C73.6816 158.938 74.0806 158.577 74.5746 158.311C75.0812 158.032 75.6639 157.893 76.3226 157.893C77.7792 157.893 78.8116 158.456 79.4196 159.584C79.7616 159.064 80.2176 158.653 80.7876 158.349C81.3702 158.045 82.0036 157.893 82.6876 157.893C83.9162 157.893 84.8599 158.26 85.5186 158.995C86.1772 159.729 86.5066 160.806 86.5066 162.225V167.545H84.0746V162.453C84.0746 161.642 83.9162 161.021 83.5996 160.591C83.2956 160.16 82.8206 159.945 82.1746 159.945C81.5159 159.945 80.9839 160.185 80.5786 160.667C80.1859 161.148 79.9896 161.819 79.9896 162.681V167.545H77.5576V162.453C77.5576 161.642 77.3992 161.021 77.0826 160.591C76.7659 160.16 76.2782 159.945 75.6196 159.945C74.9736 159.945 74.4479 160.185 74.0426 160.667C73.6499 161.148 73.4536 161.819 73.4536 162.681V167.545H71.0216Z" fill="white"/>
</svg>
