<svg width="171" height="31" viewBox="0 0 171 31" fill="none" xmlns="http://www.w3.org/2000/svg">
<path d="M63.1096 19.0615V5.76152H65.5416V19.0615H63.1096ZM67.0649 19.0615V9.63752H69.2119L69.4019 11.2335C69.6932 10.6762 70.1112 10.2329 70.6559 9.90352C71.2132 9.57419 71.8656 9.40952 72.6129 9.40952C73.7782 9.40952 74.6839 9.77686 75.3299 10.5115C75.9759 11.2462 76.2989 12.3229 76.2989 13.7415V19.0615H73.8669V13.9695C73.8669 13.1589 73.7022 12.5382 73.3729 12.1075C73.0436 11.6769 72.5306 11.4615 71.8339 11.4615C71.1499 11.4615 70.5862 11.7022 70.1429 12.1835C69.7122 12.6649 69.4969 13.3362 69.4969 14.1975V19.0615H67.0649ZM81.522 19.2895C80.686 19.2895 79.9513 19.1565 79.318 18.8905C78.6846 18.6119 78.178 18.2319 77.798 17.7505C77.418 17.2692 77.19 16.7119 77.114 16.0785H79.565C79.641 16.4459 79.8436 16.7625 80.173 17.0285C80.515 17.2819 80.952 17.4085 81.484 17.4085C82.016 17.4085 82.4023 17.3009 82.643 17.0855C82.8963 16.8702 83.023 16.6232 83.023 16.3445C83.023 15.9392 82.8456 15.6669 82.491 15.5275C82.1363 15.3755 81.6423 15.2299 81.009 15.0905C80.6036 15.0019 80.192 14.8942 79.774 14.7675C79.356 14.6409 78.9696 14.4825 78.615 14.2925C78.273 14.0899 77.9943 13.8365 77.779 13.5325C77.5636 13.2159 77.456 12.8295 77.456 12.3735C77.456 11.5375 77.7853 10.8345 78.444 10.2645C79.1153 9.69452 80.0526 9.40952 81.256 9.40952C82.3706 9.40952 83.2573 9.66919 83.916 10.1885C84.5873 10.7079 84.9863 11.4235 85.113 12.3355H82.814C82.6746 11.6389 82.149 11.2905 81.237 11.2905C80.781 11.2905 80.4263 11.3792 80.173 11.5565C79.9323 11.7339 79.812 11.9555 79.812 12.2215C79.812 12.5002 79.9956 12.7219 80.363 12.8865C80.7303 13.0512 81.218 13.2032 81.826 13.3425C82.4846 13.4945 83.0863 13.6655 83.631 13.8555C84.1883 14.0329 84.6316 14.3052 84.961 14.6725C85.2903 15.0272 85.455 15.5402 85.455 16.2115C85.4676 16.7942 85.3156 17.3199 84.999 17.7885C84.6823 18.2572 84.2263 18.6245 83.631 18.8905C83.0356 19.1565 82.3326 19.2895 81.522 19.2895ZM90.514 19.0615C89.526 19.0615 88.7343 18.8209 88.139 18.3395C87.5437 17.8582 87.246 17.0032 87.246 15.7745V11.6705H85.631V9.63752H87.246L87.531 7.11052H89.678V9.63752H92.224V11.6705H89.678V15.7935C89.678 16.2495 89.773 16.5662 89.963 16.7435C90.1657 16.9082 90.5077 16.9905 90.989 16.9905H92.167V19.0615H90.514ZM96.5636 19.2895C95.7529 19.2895 95.0879 19.1629 94.5686 18.9095C94.0492 18.6435 93.6629 18.2952 93.4096 17.8645C93.1562 17.4339 93.0296 16.9589 93.0296 16.4395C93.0296 15.5655 93.3716 14.8562 94.0556 14.3115C94.7396 13.7669 95.7656 13.4945 97.1336 13.4945H99.5276V13.2665C99.5276 12.6205 99.3439 12.1455 98.9766 11.8415C98.6092 11.5375 98.1532 11.3855 97.6086 11.3855C97.1146 11.3855 96.6839 11.5059 96.3166 11.7465C95.9492 11.9745 95.7212 12.3165 95.6326 12.7725H93.2576C93.3209 12.0885 93.5489 11.4932 93.9416 10.9865C94.3469 10.4799 94.8662 10.0935 95.4996 9.82752C96.1329 9.54886 96.8422 9.40952 97.6276 9.40952C98.9702 9.40952 100.028 9.74519 100.801 10.4165C101.573 11.0879 101.96 12.0379 101.96 13.2665V19.0615H99.8886L99.6606 17.5415C99.3819 18.0482 98.9892 18.4662 98.4826 18.7955C97.9886 19.1249 97.3489 19.2895 96.5636 19.2895ZM97.1146 17.3895C97.8112 17.3895 98.3496 17.1615 98.7296 16.7055C99.1222 16.2495 99.3692 15.6859 99.4706 15.0145H97.3996C96.7536 15.0145 96.2912 15.1349 96.0126 15.3755C95.7339 15.6035 95.5946 15.8885 95.5946 16.2305C95.5946 16.5979 95.7339 16.8829 96.0126 17.0855C96.2912 17.2882 96.6586 17.3895 97.1146 17.3895ZM103.283 19.0615V5.38152H105.715V19.0615H103.283ZM107.202 19.0615V5.38152H109.634V19.0615H107.202ZM113.854 19.0615L118.718 5.76152H121.454L126.318 19.0615H123.734L122.67 15.9835H117.483L116.4 19.0615H113.854ZM118.148 14.0835H122.005L120.067 8.55452L118.148 14.0835ZM126.976 23.2415V9.63752H129.142L129.408 10.9865C129.712 10.5685 130.111 10.2012 130.605 9.88452C131.112 9.56786 131.764 9.40952 132.562 9.40952C133.449 9.40952 134.241 9.62486 134.937 10.0555C135.634 10.4862 136.185 11.0752 136.59 11.8225C136.996 12.5699 137.198 13.4185 137.198 14.3685C137.198 15.3185 136.996 16.1672 136.59 16.9145C136.185 17.6492 135.634 18.2319 134.937 18.6625C134.241 19.0805 133.449 19.2895 132.562 19.2895C131.853 19.2895 131.232 19.1565 130.7 18.8905C130.168 18.6245 129.738 18.2509 129.408 17.7695V23.2415H126.976ZM132.049 17.1615C132.822 17.1615 133.462 16.9019 133.968 16.3825C134.475 15.8632 134.728 15.1919 134.728 14.3685C134.728 13.5452 134.475 12.8675 133.968 12.3355C133.462 11.8035 132.822 11.5375 132.049 11.5375C131.264 11.5375 130.618 11.8035 130.111 12.3355C129.617 12.8549 129.37 13.5262 129.37 14.3495C129.37 15.1729 129.617 15.8505 130.111 16.3825C130.618 16.9019 131.264 17.1615 132.049 17.1615ZM138.374 23.2415V9.63752H140.54L140.806 10.9865C141.11 10.5685 141.509 10.2012 142.003 9.88452C142.509 9.56786 143.162 9.40952 143.96 9.40952C144.846 9.40952 145.638 9.62486 146.335 10.0555C147.031 10.4862 147.582 11.0752 147.988 11.8225C148.393 12.5699 148.596 13.4185 148.596 14.3685C148.596 15.3185 148.393 16.1672 147.988 16.9145C147.582 17.6492 147.031 18.2319 146.335 18.6625C145.638 19.0805 144.846 19.2895 143.96 19.2895C143.25 19.2895 142.63 19.1565 142.098 18.8905C141.566 18.6245 141.135 18.2509 140.806 17.7695V23.2415H138.374ZM143.447 17.1615C144.219 17.1615 144.859 16.9019 145.366 16.3825C145.872 15.8632 146.126 15.1919 146.126 14.3685C146.126 13.5452 145.872 12.8675 145.366 12.3355C144.859 11.8035 144.219 11.5375 143.447 11.5375C142.661 11.5375 142.015 11.8035 141.509 12.3355C141.015 12.8549 140.768 13.5262 140.768 14.3495C140.768 15.1729 141.015 15.8505 141.509 16.3825C142.015 16.9019 142.661 17.1615 143.447 17.1615Z" fill="white"/>
<path d="M21.0553 14.8841L14.8792 21.0602L8.70313 14.8841M14.8792 7.47273V19.8249V7.47273ZM14.8792 1.29663C22.3832 1.29663 28.4667 7.38009 28.4667 14.8841C28.4667 22.388 22.3832 28.4715 14.8792 28.4715C7.37527 28.4715 1.29181 22.388 1.29181 14.8841C1.29181 7.38009 7.37527 1.29663 14.8792 1.29663Z" stroke="white" stroke-width="2"/>
</svg>
