<svg width="216" height="40" viewBox="0 0 216 40" fill="none" xmlns="http://www.w3.org/2000/svg">
<path d="M29.6547 11.8333L37.4523 29.3452L36.5476 29.75L28.75 12.2381L29.6547 11.8333ZM19 29.7381V11.7381H20V29.7381H19ZM25 29.7381V11.7381H26V29.7381H25Z" fill="#B3B3B3"/>
<path opacity="0.7" d="M59.598 19.828L56.14 14.074H58.408L60.634 18.008L62.86 14.074H65.03L61.53 19.828V24H59.598V19.828ZM66.635 21.998C66.9803 22.3433 67.3956 22.516 67.881 22.516C68.3663 22.516 68.777 22.3433 69.113 21.998C69.4583 21.6527 69.631 21.172 69.631 20.556C69.631 19.94 69.4583 19.4593 69.113 19.114C68.777 18.7687 68.3663 18.596 67.881 18.596C67.3956 18.596 66.9803 18.7687 66.635 19.114C66.299 19.4593 66.131 19.94 66.131 20.556C66.131 21.172 66.299 21.6527 66.635 21.998ZM65.291 17.938C65.9816 17.2473 66.845 16.902 67.881 16.902C68.917 16.902 69.7756 17.2473 70.457 17.938C71.1476 18.6287 71.493 19.5013 71.493 20.556C71.493 21.6107 71.1476 22.4833 70.457 23.174C69.7756 23.8647 68.917 24.21 67.881 24.21C66.845 24.21 65.9816 23.8647 65.291 23.174C64.6096 22.4833 64.269 21.6107 64.269 20.556C64.269 19.5013 64.6096 18.6287 65.291 17.938ZM77.4434 24C77.4061 23.8133 77.3874 23.566 77.3874 23.258C77.2101 23.566 76.9441 23.7993 76.5894 23.958C76.2441 24.1073 75.8754 24.182 75.4834 24.182C74.6714 24.182 74.0321 23.9253 73.5654 23.412C73.0987 22.8893 72.8654 22.2407 72.8654 21.466V17.112H74.7274V21.088C74.7274 21.4987 74.8347 21.8347 75.0494 22.096C75.2641 22.348 75.5767 22.474 75.9874 22.474C76.3887 22.474 76.7061 22.3527 76.9394 22.11C77.1727 21.858 77.2894 21.5267 77.2894 21.116V17.112H79.1514V22.754C79.1514 23.1927 79.1747 23.608 79.2214 24H77.4434ZM85.3385 17.084V18.96C85.1519 18.9227 84.9652 18.904 84.7785 18.904C84.2465 18.904 83.8172 19.058 83.4905 19.366C83.1639 19.6647 83.0005 20.1593 83.0005 20.85V24H81.1385V17.112H82.9445V18.134C83.2805 17.4153 83.9339 17.056 84.9045 17.056C85.0072 17.056 85.1519 17.0653 85.3385 17.084ZM96.5623 24H90.2063V14.074H92.1383V22.152H96.5623V24ZM99.7623 24H97.9003V17.112H99.7623V24ZM97.6763 14.858C97.6763 14.5407 97.7883 14.27 98.0123 14.046C98.2363 13.8127 98.5069 13.696 98.8243 13.696C99.1416 13.696 99.4123 13.808 99.6363 14.032C99.8603 14.256 99.9723 14.5313 99.9723 14.858C99.9723 15.166 99.8603 15.432 99.6363 15.656C99.4123 15.88 99.1416 15.992 98.8243 15.992C98.5069 15.992 98.2363 15.88 98.0123 15.656C97.7883 15.432 97.6763 15.166 97.6763 14.858ZM103.562 24H101.756V13.864H103.59V17.868C103.758 17.6067 104.024 17.3873 104.388 17.21C104.761 17.0233 105.19 16.93 105.676 16.93C106.656 16.93 107.43 17.266 108 17.938C108.569 18.61 108.854 19.4733 108.854 20.528C108.854 21.5827 108.555 22.4553 107.958 23.146C107.36 23.8273 106.576 24.168 105.606 24.168C104.663 24.168 103.982 23.832 103.562 23.16V24ZM106.502 21.984C106.828 21.6293 106.992 21.1487 106.992 20.542C106.992 19.9353 106.828 19.4593 106.502 19.114C106.184 18.7687 105.778 18.596 105.284 18.596C104.789 18.596 104.378 18.7687 104.052 19.114C103.725 19.4593 103.562 19.9353 103.562 20.542C103.562 21.1487 103.725 21.6293 104.052 21.984C104.388 22.3293 104.798 22.502 105.284 22.502C105.778 22.502 106.184 22.3293 106.502 21.984ZM114.528 17.084V18.96C114.341 18.9227 114.155 18.904 113.968 18.904C113.436 18.904 113.007 19.058 112.68 19.366C112.353 19.6647 112.19 20.1593 112.19 20.85V24H110.328V17.112H112.134V18.134C112.47 17.4153 113.123 17.056 114.094 17.056C114.197 17.056 114.341 17.0653 114.528 17.084ZM115.459 22.124C115.459 21.536 115.65 21.0647 116.033 20.71C116.415 20.3553 116.91 20.1313 117.517 20.038L119.211 19.786C119.556 19.7393 119.729 19.576 119.729 19.296C119.729 19.0347 119.626 18.82 119.421 18.652C119.225 18.484 118.94 18.4 118.567 18.4C118.175 18.4 117.862 18.5073 117.629 18.722C117.405 18.9367 117.279 19.2027 117.251 19.52L115.599 19.17C115.664 18.5727 115.958 18.0453 116.481 17.588C117.003 17.1307 117.694 16.902 118.553 16.902C119.579 16.902 120.335 17.1493 120.821 17.644C121.306 18.1293 121.549 18.7547 121.549 19.52V22.908C121.549 23.3187 121.577 23.6827 121.633 24H119.925C119.878 23.7947 119.855 23.5193 119.855 23.174C119.416 23.8553 118.739 24.196 117.825 24.196C117.115 24.196 116.541 23.9907 116.103 23.58C115.673 23.1693 115.459 22.684 115.459 22.124ZM118.217 22.81C118.655 22.81 119.015 22.6887 119.295 22.446C119.584 22.194 119.729 21.7833 119.729 21.214V20.906L118.175 21.144C117.605 21.228 117.321 21.5173 117.321 22.012C117.321 22.236 117.4 22.4273 117.559 22.586C117.717 22.7353 117.937 22.81 118.217 22.81ZM127.626 17.084V18.96C127.439 18.9227 127.252 18.904 127.066 18.904C126.534 18.904 126.104 19.058 125.778 19.366C125.451 19.6647 125.288 20.1593 125.288 20.85V24H123.426V17.112H125.232V18.134C125.568 17.4153 126.221 17.056 127.192 17.056C127.294 17.056 127.439 17.0653 127.626 17.084ZM131.616 26.716H129.642L131.266 23.132L128.34 17.112H130.426L132.26 21.144L133.954 17.112H135.942L131.616 26.716Z" fill="white"/>
</svg>
