<svg width="211" height="162" viewBox="0 0 211 162" fill="none" xmlns="http://www.w3.org/2000/svg">
<path d="M0.0565796 63.5623C0.0565796 63.01 0.504295 62.5623 1.05658 62.5623H36.1132C36.6655 62.5623 37.1132 63.01 37.1132 63.5623V98.6189C37.1132 99.1711 36.6655 99.6189 36.1132 99.6189H1.05658C0.504293 99.6189 0.0565796 99.1711 0.0565796 98.6189V63.5623Z" fill="url(#paint0_linear_306_625)"/>
<g clip-path="url(#clip0_306_625)">
<path d="M21.233 76.3134C20.7288 76.3212 20.2356 76.4619 19.8032 76.7214C19.3708 76.9808 19.0145 77.3498 18.7703 77.791C18.5261 77.3498 18.1698 76.9808 17.7374 76.7214C17.305 76.4619 16.8118 76.3212 16.3076 76.3134C15.5038 76.3483 14.7465 76.6999 14.2012 77.2914C13.6558 77.8829 13.3667 78.6662 13.3971 79.4701C13.3971 82.5037 18.3028 86.0075 18.5115 86.1562L18.7703 86.3393L19.0291 86.1562C19.2377 86.0084 24.1435 82.5037 24.1435 79.4701C24.1738 78.6662 23.8847 77.8829 23.3394 77.2914C22.794 76.6999 22.0368 76.3483 21.233 76.3134Z" fill="white"/>
</g>
<path d="M69.1326 22.4997C67.79 22.4997 66.6373 22.2147 65.6746 21.6447C64.712 21.0621 63.971 20.2577 63.4516 19.2317C62.9323 18.1931 62.6726 16.9961 62.6726 15.6407C62.6726 14.2854 62.9323 13.0884 63.4516 12.0497C63.971 11.0111 64.712 10.2004 65.6746 9.61773C66.6373 9.03506 67.79 8.74373 69.1326 8.74373C70.7286 8.74373 72.0333 9.14273 73.0466 9.94073C74.0726 10.7261 74.7123 11.8344 74.9656 13.2657H72.2866C72.122 12.5437 71.7673 11.9801 71.2226 11.5747C70.6906 11.1567 69.9813 10.9477 69.0946 10.9477C67.866 10.9477 66.9033 11.3657 66.2066 12.2017C65.51 13.0377 65.1616 14.1841 65.1616 15.6407C65.1616 17.0974 65.51 18.2437 66.2066 19.0797C66.9033 19.9031 67.866 20.3147 69.0946 20.3147C69.9813 20.3147 70.6906 20.1247 71.2226 19.7447C71.7673 19.3521 72.122 18.8137 72.2866 18.1297H74.9656C74.7123 19.4977 74.0726 20.5681 73.0466 21.3407C72.0333 22.1134 70.7286 22.4997 69.1326 22.4997ZM76.0639 22.2717V12.8477H78.2299L78.4579 14.6147C78.7999 14.0067 79.2622 13.5254 79.8449 13.1707C80.4402 12.8034 81.1369 12.6197 81.9349 12.6197V15.1847H81.2509C80.7189 15.1847 80.2439 15.2671 79.8259 15.4317C79.4079 15.5964 79.0786 15.8814 78.8379 16.2867C78.6099 16.6921 78.4959 17.2557 78.4959 17.9777V22.2717H76.0639ZM87.0116 22.4997C86.0616 22.4997 85.2193 22.2971 84.4846 21.8917C83.75 21.4864 83.1736 20.9164 82.7556 20.1817C82.3376 19.4471 82.1286 18.5984 82.1286 17.6357C82.1286 16.6604 82.3313 15.7927 82.7366 15.0327C83.1546 14.2727 83.7246 13.6837 84.4466 13.2657C85.1813 12.8351 86.0426 12.6197 87.0306 12.6197C87.9553 12.6197 88.7723 12.8224 89.4816 13.2277C90.191 13.6331 90.742 14.1904 91.1346 14.8997C91.54 15.5964 91.7426 16.3754 91.7426 17.2367C91.7426 17.3761 91.7363 17.5217 91.7236 17.6737C91.7236 17.8257 91.7173 17.9841 91.7046 18.1487H84.5416C84.5923 18.8834 84.8456 19.4597 85.3016 19.8777C85.7703 20.2957 86.334 20.5047 86.9926 20.5047C87.4866 20.5047 87.8983 20.3971 88.2276 20.1817C88.5696 19.9537 88.823 19.6624 88.9876 19.3077H91.4576C91.2803 19.9031 90.9826 20.4477 90.5646 20.9417C90.1593 21.4231 89.6526 21.8031 89.0446 22.0817C88.4493 22.3604 87.7716 22.4997 87.0116 22.4997ZM87.0306 14.5957C86.4353 14.5957 85.9096 14.7667 85.4536 15.1087C84.9976 15.4381 84.7063 15.9447 84.5796 16.6287H89.2726C89.2346 16.0081 89.0066 15.5141 88.5886 15.1467C88.1706 14.7794 87.6513 14.5957 87.0306 14.5957ZM96.0396 22.4997C95.2289 22.4997 94.5639 22.3731 94.0446 22.1197C93.5253 21.8537 93.1389 21.5054 92.8856 21.0747C92.6323 20.6441 92.5056 20.1691 92.5056 19.6497C92.5056 18.7757 92.8476 18.0664 93.5316 17.5217C94.2156 16.9771 95.2416 16.7047 96.6096 16.7047H99.0036V16.4767C99.0036 15.8307 98.8199 15.3557 98.4526 15.0517C98.0853 14.7477 97.6293 14.5957 97.0846 14.5957C96.5906 14.5957 96.1599 14.7161 95.7926 14.9567C95.4253 15.1847 95.1973 15.5267 95.1086 15.9827H92.7336C92.7969 15.2987 93.0249 14.7034 93.4176 14.1967C93.8229 13.6901 94.3423 13.3037 94.9756 13.0377C95.6089 12.7591 96.3183 12.6197 97.1036 12.6197C98.4463 12.6197 99.5039 12.9554 100.277 13.6267C101.049 14.2981 101.436 15.2481 101.436 16.4767V22.2717H99.3646L99.1366 20.7517C98.8579 21.2584 98.4653 21.6764 97.9586 22.0057C97.4646 22.3351 96.8249 22.4997 96.0396 22.4997ZM96.5906 20.5997C97.2873 20.5997 97.8256 20.3717 98.2056 19.9157C98.5983 19.4597 98.8453 18.8961 98.9466 18.2247H96.8756C96.2296 18.2247 95.7673 18.3451 95.4886 18.5857C95.2099 18.8137 95.0706 19.0987 95.0706 19.4407C95.0706 19.8081 95.2099 20.0931 95.4886 20.2957C95.7673 20.4984 96.1346 20.5997 96.5906 20.5997ZM106.828 22.2717C105.84 22.2717 105.048 22.0311 104.453 21.5497C103.858 21.0684 103.56 20.2134 103.56 18.9847V14.8807H101.945V12.8477H103.56L103.845 10.3207H105.992V12.8477H108.538V14.8807H105.992V19.0037C105.992 19.4597 106.087 19.7764 106.277 19.9537C106.48 20.1184 106.822 20.2007 107.303 20.2007H108.481V22.2717H106.828ZM113.966 22.4997C113.016 22.4997 112.174 22.2971 111.439 21.8917C110.705 21.4864 110.128 20.9164 109.71 20.1817C109.292 19.4471 109.083 18.5984 109.083 17.6357C109.083 16.6604 109.286 15.7927 109.691 15.0327C110.109 14.2727 110.679 13.6837 111.401 13.2657C112.136 12.8351 112.997 12.6197 113.985 12.6197C114.91 12.6197 115.727 12.8224 116.436 13.2277C117.146 13.6331 117.697 14.1904 118.089 14.8997C118.495 15.5964 118.697 16.3754 118.697 17.2367C118.697 17.3761 118.691 17.5217 118.678 17.6737C118.678 17.8257 118.672 17.9841 118.659 18.1487H111.496C111.547 18.8834 111.8 19.4597 112.256 19.8777C112.725 20.2957 113.289 20.5047 113.947 20.5047C114.441 20.5047 114.853 20.3971 115.182 20.1817C115.524 19.9537 115.778 19.6624 115.942 19.3077H118.412C118.235 19.9031 117.937 20.4477 117.519 20.9417C117.114 21.4231 116.607 21.8031 115.999 22.0817C115.404 22.3604 114.726 22.4997 113.966 22.4997ZM113.985 14.5957C113.39 14.5957 112.864 14.7667 112.408 15.1087C111.952 15.4381 111.661 15.9447 111.534 16.6287H116.227C116.189 16.0081 115.961 15.5141 115.543 15.1467C115.125 14.7794 114.606 14.5957 113.985 14.5957ZM123.332 22.2717V8.97173H128.253C129.317 8.97173 130.198 9.14906 130.894 9.50373C131.591 9.85839 132.11 10.3461 132.452 10.9667C132.794 11.5874 132.965 12.2841 132.965 13.0567C132.965 13.7914 132.801 14.4691 132.471 15.0897C132.142 15.6977 131.629 16.1917 130.932 16.5717C130.236 16.9391 129.343 17.1227 128.253 17.1227H125.764V22.2717H123.332ZM125.764 15.1467H128.101C128.95 15.1467 129.558 14.9631 129.925 14.5957C130.305 14.2157 130.495 13.7027 130.495 13.0567C130.495 12.3981 130.305 11.8851 129.925 11.5177C129.558 11.1377 128.95 10.9477 128.101 10.9477H125.764V15.1467ZM133.819 22.2717V8.59173H136.251V22.2717H133.819ZM140.987 22.4997C140.177 22.4997 139.512 22.3731 138.992 22.1197C138.473 21.8537 138.087 21.5054 137.833 21.0747C137.58 20.6441 137.453 20.1691 137.453 19.6497C137.453 18.7757 137.795 18.0664 138.479 17.5217C139.163 16.9771 140.189 16.7047 141.557 16.7047H143.951V16.4767C143.951 15.8307 143.768 15.3557 143.4 15.0517C143.033 14.7477 142.577 14.5957 142.032 14.5957C141.538 14.5957 141.108 14.7161 140.74 14.9567C140.373 15.1847 140.145 15.5267 140.056 15.9827H137.681C137.745 15.2987 137.973 14.7034 138.365 14.1967C138.771 13.6901 139.29 13.3037 139.923 13.0377C140.557 12.7591 141.266 12.6197 142.051 12.6197C143.394 12.6197 144.452 12.9554 145.224 13.6267C145.997 14.2981 146.383 15.2481 146.383 16.4767V22.2717H144.312L144.084 20.7517C143.806 21.2584 143.413 21.6764 142.906 22.0057C142.412 22.3351 141.773 22.4997 140.987 22.4997ZM141.538 20.5997C142.235 20.5997 142.773 20.3717 143.153 19.9157C143.546 19.4597 143.793 18.8961 143.894 18.2247H141.823C141.177 18.2247 140.715 18.3451 140.436 18.5857C140.158 18.8137 140.018 19.0987 140.018 19.4407C140.018 19.8081 140.158 20.0931 140.436 20.2957C140.715 20.4984 141.082 20.5997 141.538 20.5997ZM148.569 26.4517L150.754 21.6447H150.184L146.517 12.8477H149.158L151.799 19.4787L154.554 12.8477H157.138L151.153 26.4517H148.569ZM157.731 22.2717V8.59173H160.163V22.2717H157.731ZM162.961 11.3847C162.518 11.3847 162.15 11.2517 161.859 10.9857C161.58 10.7197 161.441 10.3841 161.441 9.97873C161.441 9.57339 161.58 9.24406 161.859 8.99073C162.15 8.72473 162.518 8.59173 162.961 8.59173C163.404 8.59173 163.765 8.72473 164.044 8.99073C164.335 9.24406 164.481 9.57339 164.481 9.97873C164.481 10.3841 164.335 10.7197 164.044 10.9857C163.765 11.2517 163.404 11.3847 162.961 11.3847ZM161.745 22.2717V12.8477H164.177V22.2717H161.745ZM169.613 22.4997C168.777 22.4997 168.042 22.3667 167.409 22.1007C166.776 21.8221 166.269 21.4421 165.889 20.9607C165.509 20.4794 165.281 19.9221 165.205 19.2887H167.656C167.732 19.6561 167.935 19.9727 168.264 20.2387C168.606 20.4921 169.043 20.6187 169.575 20.6187C170.107 20.6187 170.493 20.5111 170.734 20.2957C170.987 20.0804 171.114 19.8334 171.114 19.5547C171.114 19.1494 170.937 18.8771 170.582 18.7377C170.227 18.5857 169.733 18.4401 169.1 18.3007C168.695 18.2121 168.283 18.1044 167.865 17.9777C167.447 17.8511 167.061 17.6927 166.706 17.5027C166.364 17.3001 166.085 17.0467 165.87 16.7427C165.655 16.4261 165.547 16.0397 165.547 15.5837C165.547 14.7477 165.876 14.0447 166.535 13.4747C167.206 12.9047 168.144 12.6197 169.347 12.6197C170.462 12.6197 171.348 12.8794 172.007 13.3987C172.678 13.9181 173.077 14.6337 173.204 15.5457H170.905C170.766 14.8491 170.24 14.5007 169.328 14.5007C168.872 14.5007 168.517 14.5894 168.264 14.7667C168.023 14.9441 167.903 15.1657 167.903 15.4317C167.903 15.7104 168.087 15.9321 168.454 16.0967C168.821 16.2614 169.309 16.4134 169.917 16.5527C170.576 16.7047 171.177 16.8757 171.722 17.0657C172.279 17.2431 172.723 17.5154 173.052 17.8827C173.381 18.2374 173.546 18.7504 173.546 19.4217C173.559 20.0044 173.407 20.5301 173.09 20.9987C172.773 21.4674 172.317 21.8347 171.722 22.1007C171.127 22.3667 170.424 22.4997 169.613 22.4997ZM178.605 22.2717C177.617 22.2717 176.825 22.0311 176.23 21.5497C175.635 21.0684 175.337 20.2134 175.337 18.9847V14.8807H173.722V12.8477H175.337L175.622 10.3207H177.769V12.8477H180.315V14.8807H177.769V19.0037C177.769 19.4597 177.864 19.7764 178.054 19.9537C178.257 20.1184 178.599 20.2007 179.08 20.2007H180.258V22.2717H178.605Z" fill="white"/>
<path d="M63.1096 84.0327V70.7327H65.5416V82.1327H71.4316V84.0327H63.1096ZM73.831 73.1457C73.3876 73.1457 73.0203 73.0127 72.729 72.7467C72.4503 72.4807 72.311 72.145 72.311 71.7397C72.311 71.3344 72.4503 71.005 72.729 70.7517C73.0203 70.4857 73.3876 70.3527 73.831 70.3527C74.2743 70.3527 74.6353 70.4857 74.914 70.7517C75.2053 71.005 75.351 71.3344 75.351 71.7397C75.351 72.145 75.2053 72.4807 74.914 72.7467C74.6353 73.0127 74.2743 73.1457 73.831 73.1457ZM72.615 84.0327V74.6087H75.047V84.0327H72.615ZM76.5879 84.0327V70.3527H79.0199V78.4277L82.3639 74.6087H85.2519L81.3949 78.9027L85.8789 84.0327H82.8389L79.0199 79.3017V84.0327H76.5879ZM90.1889 84.2607C89.2389 84.2607 88.3966 84.058 87.6619 83.6527C86.9273 83.2474 86.3509 82.6774 85.9329 81.9427C85.5149 81.208 85.3059 80.3594 85.3059 79.3967C85.3059 78.4214 85.5086 77.5537 85.9139 76.7937C86.3319 76.0337 86.9019 75.4447 87.6239 75.0267C88.3586 74.596 89.2199 74.3807 90.2079 74.3807C91.1326 74.3807 91.9496 74.5834 92.6589 74.9887C93.3683 75.394 93.9193 75.9514 94.3119 76.6607C94.7173 77.3574 94.9199 78.1364 94.9199 78.9977C94.9199 79.137 94.9136 79.2827 94.9009 79.4347C94.9009 79.5867 94.8946 79.745 94.8819 79.9097H87.7189C87.7696 80.6444 88.0229 81.2207 88.4789 81.6387C88.9476 82.0567 89.5113 82.2657 90.1699 82.2657C90.6639 82.2657 91.0756 82.158 91.4049 81.9427C91.7469 81.7147 92.0003 81.4234 92.1649 81.0687H94.6349C94.4576 81.664 94.1599 82.2087 93.7419 82.7027C93.3366 83.184 92.8299 83.564 92.2219 83.8427C91.6266 84.1214 90.9489 84.2607 90.1889 84.2607ZM90.2079 76.3567C89.6126 76.3567 89.0869 76.5277 88.6309 76.8697C88.1749 77.199 87.8836 77.7057 87.7569 78.3897H92.4499C92.4119 77.769 92.1839 77.275 91.7659 76.9077C91.3479 76.5404 90.8286 76.3567 90.2079 76.3567ZM100.3 84.2607C99.4132 84.2607 98.6216 84.0454 97.9249 83.6147C97.2282 83.184 96.6772 82.595 96.2719 81.8477C95.8666 81.1004 95.6639 80.2517 95.6639 79.3017C95.6639 78.3517 95.8666 77.5094 96.2719 76.7747C96.6772 76.0274 97.2282 75.4447 97.9249 75.0267C98.6216 74.596 99.4132 74.3807 100.3 74.3807C101.009 74.3807 101.63 74.5137 102.162 74.7797C102.694 75.0457 103.125 75.4194 103.454 75.9007V70.3527H105.886V84.0327H103.72L103.454 82.6837C103.15 83.1017 102.745 83.469 102.238 83.7857C101.744 84.1024 101.098 84.2607 100.3 84.2607ZM100.813 82.1327C101.598 82.1327 102.238 81.873 102.732 81.3537C103.239 80.8217 103.492 80.144 103.492 79.3207C103.492 78.4974 103.239 77.826 102.732 77.3067C102.238 76.7747 101.598 76.5087 100.813 76.5087C100.04 76.5087 99.4006 76.7684 98.8939 77.2877C98.3872 77.807 98.1339 78.4784 98.1339 79.3017C98.1339 80.125 98.3872 80.8027 98.8939 81.3347C99.4006 81.8667 100.04 82.1327 100.813 82.1327ZM115.493 84.2607C114.517 84.2607 113.656 84.096 112.909 83.7667C112.161 83.4247 111.572 82.9434 111.142 82.3227C110.711 81.6894 110.489 80.923 110.477 80.0237H113.042C113.067 80.6444 113.289 81.17 113.707 81.6007C114.137 82.0187 114.726 82.2277 115.474 82.2277C116.12 82.2277 116.633 82.0757 117.013 81.7717C117.393 81.455 117.583 81.037 117.583 80.5177C117.583 79.973 117.412 79.5487 117.07 79.2447C116.74 78.9407 116.297 78.6937 115.74 78.5037C115.182 78.3137 114.587 78.111 113.954 77.8957C112.928 77.541 112.142 77.085 111.598 76.5277C111.066 75.9704 110.8 75.2294 110.8 74.3047C110.787 73.5194 110.971 72.848 111.351 72.2907C111.743 71.7207 112.275 71.2837 112.947 70.9797C113.618 70.663 114.391 70.5047 115.265 70.5047C116.151 70.5047 116.93 70.663 117.602 70.9797C118.286 71.2964 118.818 71.7397 119.198 72.3097C119.59 72.8797 119.799 73.5574 119.825 74.3427H117.222C117.209 73.874 117.025 73.4624 116.671 73.1077C116.329 72.7404 115.847 72.5567 115.227 72.5567C114.695 72.544 114.245 72.677 113.878 72.9557C113.523 73.2217 113.346 73.6144 113.346 74.1337C113.346 74.577 113.485 74.9317 113.764 75.1977C114.042 75.451 114.422 75.6664 114.904 75.8437C115.385 76.021 115.936 76.211 116.557 76.4137C117.215 76.6417 117.817 76.9077 118.362 77.2117C118.906 77.5157 119.343 77.921 119.673 78.4277C120.002 78.9217 120.167 79.5614 120.167 80.3467C120.167 81.0434 119.989 81.6894 119.635 82.2847C119.28 82.88 118.754 83.3614 118.058 83.7287C117.361 84.0834 116.506 84.2607 115.493 84.2607ZM125.756 84.2607C124.844 84.2607 124.021 84.0517 123.286 83.6337C122.564 83.2157 121.988 82.6394 121.557 81.9047C121.139 81.1574 120.93 80.296 120.93 79.3207C120.93 78.3454 121.146 77.4904 121.576 76.7557C122.007 76.0084 122.583 75.4257 123.305 75.0077C124.04 74.5897 124.863 74.3807 125.775 74.3807C126.675 74.3807 127.485 74.5897 128.207 75.0077C128.942 75.4257 129.518 76.0084 129.936 76.7557C130.367 77.4904 130.582 78.3454 130.582 79.3207C130.582 80.296 130.367 81.1574 129.936 81.9047C129.518 82.6394 128.942 83.2157 128.207 83.6337C127.473 84.0517 126.656 84.2607 125.756 84.2607ZM125.756 82.1517C126.39 82.1517 126.941 81.9174 127.409 81.4487C127.878 80.9674 128.112 80.258 128.112 79.3207C128.112 78.3834 127.878 77.6804 127.409 77.2117C126.941 76.7304 126.396 76.4897 125.775 76.4897C125.129 76.4897 124.572 76.7304 124.103 77.2117C123.647 77.6804 123.419 78.3834 123.419 79.3207C123.419 80.258 123.647 80.9674 124.103 81.4487C124.572 81.9174 125.123 82.1517 125.756 82.1517ZM131.759 84.0327V74.6087H133.906L134.096 76.2047C134.387 75.6474 134.805 75.204 135.35 74.8747C135.907 74.5454 136.56 74.3807 137.307 74.3807C138.472 74.3807 139.378 74.748 140.024 75.4827C140.67 76.2174 140.993 77.294 140.993 78.7127V84.0327H138.561V78.9407C138.561 78.13 138.396 77.5094 138.067 77.0787C137.738 76.648 137.225 76.4327 136.528 76.4327C135.844 76.4327 135.28 76.6734 134.837 77.1547C134.406 77.636 134.191 78.3074 134.191 79.1687V84.0327H131.759ZM146.311 81.2207C145.855 81.2207 145.431 81.17 145.038 81.0687L144.335 81.7717C144.551 81.8857 144.842 81.9807 145.209 82.0567C145.577 82.1327 146.172 82.2087 146.995 82.2847C148.249 82.3987 149.161 82.6964 149.731 83.1777C150.301 83.659 150.586 84.324 150.586 85.1727C150.586 85.73 150.434 86.2557 150.13 86.7497C149.826 87.2564 149.358 87.6617 148.724 87.9657C148.091 88.2824 147.28 88.4407 146.292 88.4407C144.95 88.4407 143.867 88.1874 143.043 87.6807C142.22 87.1867 141.808 86.4394 141.808 85.4387C141.808 84.59 142.22 83.8554 143.043 83.2347C142.79 83.1207 142.568 83.0004 142.378 82.8737C142.201 82.747 142.043 82.614 141.903 82.4747V82.0377L143.556 80.2897C142.822 79.6437 142.454 78.814 142.454 77.8007C142.454 77.1674 142.606 76.591 142.91 76.0717C143.227 75.5524 143.67 75.1407 144.24 74.8367C144.81 74.5327 145.501 74.3807 146.311 74.3807C146.843 74.3807 147.337 74.4567 147.793 74.6087H151.365V76.0907L149.75 76.2047C150.004 76.686 150.13 77.218 150.13 77.8007C150.13 78.434 149.978 79.0104 149.674 79.5297C149.37 80.049 148.927 80.4607 148.344 80.7647C147.774 81.0687 147.097 81.2207 146.311 81.2207ZM146.311 79.3587C146.805 79.3587 147.211 79.2257 147.527 78.9597C147.857 78.6937 148.021 78.3137 148.021 77.8197C148.021 77.3257 147.857 76.9457 147.527 76.6797C147.211 76.4137 146.805 76.2807 146.311 76.2807C145.792 76.2807 145.374 76.4137 145.057 76.6797C144.741 76.9457 144.582 77.3257 144.582 77.8197C144.582 78.3137 144.741 78.6937 145.057 78.9597C145.374 79.2257 145.792 79.3587 146.311 79.3587ZM144.031 85.1917C144.031 85.6604 144.247 86.0087 144.677 86.2367C145.121 86.4774 145.659 86.5977 146.292 86.5977C146.9 86.5977 147.394 86.471 147.774 86.2177C148.154 85.977 148.344 85.6477 148.344 85.2297C148.344 84.8877 148.218 84.6027 147.964 84.3747C147.724 84.1467 147.236 84.0074 146.501 83.9567C145.982 83.9187 145.501 83.8617 145.057 83.7857C144.69 83.9884 144.424 84.21 144.259 84.4507C144.107 84.6914 144.031 84.9384 144.031 85.1917ZM156.036 84.2607C155.2 84.2607 154.465 84.1277 153.832 83.8617C153.199 83.583 152.692 83.203 152.312 82.7217C151.932 82.2404 151.704 81.683 151.628 81.0497H154.079C154.155 81.417 154.358 81.7337 154.687 81.9997C155.029 82.253 155.466 82.3797 155.998 82.3797C156.53 82.3797 156.916 82.272 157.157 82.0567C157.41 81.8414 157.537 81.5944 157.537 81.3157C157.537 80.9104 157.36 80.638 157.005 80.4987C156.65 80.3467 156.156 80.201 155.523 80.0617C155.118 79.973 154.706 79.8654 154.288 79.7387C153.87 79.612 153.484 79.4537 153.129 79.2637C152.787 79.061 152.508 78.8077 152.293 78.5037C152.078 78.187 151.97 77.8007 151.97 77.3447C151.97 76.5087 152.299 75.8057 152.958 75.2357C153.629 74.6657 154.567 74.3807 155.77 74.3807C156.885 74.3807 157.771 74.6404 158.43 75.1597C159.101 75.679 159.5 76.3947 159.627 77.3067H157.328C157.189 76.61 156.663 76.2617 155.751 76.2617C155.295 76.2617 154.94 76.3504 154.687 76.5277C154.446 76.705 154.326 76.9267 154.326 77.1927C154.326 77.4714 154.51 77.693 154.877 77.8577C155.244 78.0224 155.732 78.1744 156.34 78.3137C156.999 78.4657 157.6 78.6367 158.145 78.8267C158.702 79.004 159.146 79.2764 159.475 79.6437C159.804 79.9984 159.969 80.5114 159.969 81.1827C159.982 81.7654 159.83 82.291 159.513 82.7597C159.196 83.2284 158.74 83.5957 158.145 83.8617C157.55 84.1277 156.847 84.2607 156.036 84.2607Z" fill="white"/>
<path d="M66.5486 145.794V141.063L62.0836 132.494H64.8386L67.7836 138.631L70.7096 132.494H73.4266L68.9806 141.063V145.794H66.5486ZM76.7637 146.022C75.8517 146.022 75.0283 145.813 74.2937 145.395C73.5717 144.977 72.9953 144.4 72.5647 143.666C72.1467 142.918 71.9377 142.057 71.9377 141.082C71.9377 140.106 72.153 139.251 72.5837 138.517C73.0143 137.769 73.5907 137.187 74.3127 136.769C75.0473 136.351 75.8707 136.142 76.7827 136.142C77.682 136.142 78.4927 136.351 79.2147 136.769C79.9493 137.187 80.5257 137.769 80.9437 138.517C81.3743 139.251 81.5897 140.106 81.5897 141.082C81.5897 142.057 81.3743 142.918 80.9437 143.666C80.5257 144.4 79.9493 144.977 79.2147 145.395C78.48 145.813 77.663 146.022 76.7637 146.022ZM76.7637 143.913C77.397 143.913 77.948 143.678 78.4167 143.21C78.8853 142.728 79.1197 142.019 79.1197 141.082C79.1197 140.144 78.8853 139.441 78.4167 138.973C77.948 138.491 77.4033 138.251 76.7827 138.251C76.1367 138.251 75.5793 138.491 75.1107 138.973C74.6547 139.441 74.4267 140.144 74.4267 141.082C74.4267 142.019 74.6547 142.728 75.1107 143.21C75.5793 143.678 76.1303 143.913 76.7637 143.913ZM86.3006 146.022C85.1226 146.022 84.2106 145.654 83.5646 144.92C82.9313 144.185 82.6146 143.108 82.6146 141.69V136.37H85.0276V141.462C85.0276 142.272 85.1923 142.893 85.5216 143.324C85.8509 143.754 86.3703 143.97 87.0796 143.97C87.7509 143.97 88.3019 143.729 88.7326 143.248C89.1759 142.766 89.3976 142.095 89.3976 141.234V136.37H91.8296V145.794H89.6826L89.4926 144.198C89.2013 144.755 88.7769 145.198 88.2196 145.528C87.6749 145.857 87.0353 146.022 86.3006 146.022ZM93.3287 145.794V136.37H95.4947L95.7227 138.137C96.0647 137.529 96.527 137.047 97.1097 136.693C97.705 136.325 98.4017 136.142 99.1997 136.142V138.707H98.5157C97.9837 138.707 97.5087 138.789 97.0907 138.954C96.6727 139.118 96.3433 139.403 96.1027 139.809C95.8747 140.214 95.7607 140.778 95.7607 141.5V145.794H93.3287ZM103.451 145.794V132.494H112.134V134.451H105.883V138.099H111.564V139.999H105.883V143.837H112.134V145.794H103.451ZM113.381 149.974V136.37H115.547L115.813 137.719C116.117 137.301 116.516 136.933 117.01 136.617C117.517 136.3 118.169 136.142 118.967 136.142C119.854 136.142 120.645 136.357 121.342 136.788C122.039 137.218 122.59 137.807 122.995 138.555C123.4 139.302 123.603 140.151 123.603 141.101C123.603 142.051 123.4 142.899 122.995 143.647C122.59 144.381 122.039 144.964 121.342 145.395C120.645 145.813 119.854 146.022 118.967 146.022C118.258 146.022 117.637 145.889 117.105 145.623C116.573 145.357 116.142 144.983 115.813 144.502V149.974H113.381ZM118.454 143.894C119.227 143.894 119.866 143.634 120.373 143.115C120.88 142.595 121.133 141.924 121.133 141.101C121.133 140.277 120.88 139.6 120.373 139.068C119.866 138.536 119.227 138.27 118.454 138.27C117.669 138.27 117.023 138.536 116.516 139.068C116.022 139.587 115.775 140.258 115.775 141.082C115.775 141.905 116.022 142.583 116.516 143.115C117.023 143.634 117.669 143.894 118.454 143.894ZM126.089 134.907C125.646 134.907 125.278 134.774 124.987 134.508C124.708 134.242 124.569 133.906 124.569 133.501C124.569 133.095 124.708 132.766 124.987 132.513C125.278 132.247 125.646 132.114 126.089 132.114C126.532 132.114 126.893 132.247 127.172 132.513C127.463 132.766 127.609 133.095 127.609 133.501C127.609 133.906 127.463 134.242 127.172 134.508C126.893 134.774 126.532 134.907 126.089 134.907ZM124.873 145.794V136.37H127.305V145.794H124.873ZM132.741 146.022C131.905 146.022 131.17 145.889 130.537 145.623C129.904 145.344 129.397 144.964 129.017 144.483C128.637 144.001 128.409 143.444 128.333 142.811H130.784C130.86 143.178 131.063 143.495 131.392 143.761C131.734 144.014 132.171 144.141 132.703 144.141C133.235 144.141 133.621 144.033 133.862 143.818C134.115 143.602 134.242 143.355 134.242 143.077C134.242 142.671 134.065 142.399 133.71 142.26C133.355 142.108 132.861 141.962 132.228 141.823C131.823 141.734 131.411 141.626 130.993 141.5C130.575 141.373 130.189 141.215 129.834 141.025C129.492 140.822 129.213 140.569 128.998 140.265C128.783 139.948 128.675 139.562 128.675 139.106C128.675 138.27 129.004 137.567 129.663 136.997C130.334 136.427 131.272 136.142 132.475 136.142C133.59 136.142 134.476 136.401 135.135 136.921C135.806 137.44 136.205 138.156 136.332 139.068H134.033C133.894 138.371 133.368 138.023 132.456 138.023C132 138.023 131.645 138.111 131.392 138.289C131.151 138.466 131.031 138.688 131.031 138.954C131.031 139.232 131.215 139.454 131.582 139.619C131.949 139.783 132.437 139.935 133.045 140.075C133.704 140.227 134.305 140.398 134.85 140.588C135.407 140.765 135.851 141.037 136.18 141.405C136.509 141.759 136.674 142.272 136.674 142.944C136.687 143.526 136.535 144.052 136.218 144.521C135.901 144.989 135.445 145.357 134.85 145.623C134.255 145.889 133.552 146.022 132.741 146.022ZM142.353 146.022C141.441 146.022 140.618 145.813 139.883 145.395C139.161 144.977 138.585 144.4 138.154 143.666C137.736 142.918 137.527 142.057 137.527 141.082C137.527 140.106 137.742 139.251 138.173 138.517C138.604 137.769 139.18 137.187 139.902 136.769C140.637 136.351 141.46 136.142 142.372 136.142C143.271 136.142 144.082 136.351 144.804 136.769C145.539 137.187 146.115 137.769 146.533 138.517C146.964 139.251 147.179 140.106 147.179 141.082C147.179 142.057 146.964 142.918 146.533 143.666C146.115 144.4 145.539 144.977 144.804 145.395C144.069 145.813 143.252 146.022 142.353 146.022ZM142.353 143.913C142.986 143.913 143.537 143.678 144.006 143.21C144.475 142.728 144.709 142.019 144.709 141.082C144.709 140.144 144.475 139.441 144.006 138.973C143.537 138.491 142.993 138.251 142.372 138.251C141.726 138.251 141.169 138.491 140.7 138.973C140.244 139.441 140.016 140.144 140.016 141.082C140.016 142.019 140.244 142.728 140.7 143.21C141.169 143.678 141.72 143.913 142.353 143.913ZM152.688 146.022C151.801 146.022 151.01 145.806 150.313 145.376C149.616 144.945 149.065 144.356 148.66 143.609C148.255 142.861 148.052 142.013 148.052 141.063C148.052 140.113 148.255 139.27 148.66 138.536C149.065 137.788 149.616 137.206 150.313 136.788C151.01 136.357 151.801 136.142 152.688 136.142C153.397 136.142 154.018 136.275 154.55 136.541C155.082 136.807 155.513 137.18 155.842 137.662V132.114H158.274V145.794H156.108L155.842 144.445C155.538 144.863 155.133 145.23 154.626 145.547C154.132 145.863 153.486 146.022 152.688 146.022ZM153.201 143.894C153.986 143.894 154.626 143.634 155.12 143.115C155.627 142.583 155.88 141.905 155.88 141.082C155.88 140.258 155.627 139.587 155.12 139.068C154.626 138.536 153.986 138.27 153.201 138.27C152.428 138.27 151.789 138.529 151.282 139.049C150.775 139.568 150.522 140.239 150.522 141.063C150.522 141.886 150.775 142.564 151.282 143.096C151.789 143.628 152.428 143.894 153.201 143.894ZM164.332 146.022C163.382 146.022 162.54 145.819 161.805 145.414C161.07 145.008 160.494 144.438 160.076 143.704C159.658 142.969 159.449 142.12 159.449 141.158C159.449 140.182 159.652 139.315 160.057 138.555C160.475 137.795 161.045 137.206 161.767 136.788C162.502 136.357 163.363 136.142 164.351 136.142C165.276 136.142 166.093 136.344 166.802 136.75C167.511 137.155 168.062 137.712 168.455 138.422C168.86 139.118 169.063 139.897 169.063 140.759C169.063 140.898 169.057 141.044 169.044 141.196C169.044 141.348 169.038 141.506 169.025 141.671H161.862C161.913 142.405 162.166 142.982 162.622 143.4C163.091 143.818 163.654 144.027 164.313 144.027C164.807 144.027 165.219 143.919 165.548 143.704C165.89 143.476 166.143 143.184 166.308 142.83H168.778C168.601 143.425 168.303 143.97 167.885 144.464C167.48 144.945 166.973 145.325 166.365 145.604C165.77 145.882 165.092 146.022 164.332 146.022ZM164.351 138.118C163.756 138.118 163.23 138.289 162.774 138.631C162.318 138.96 162.027 139.467 161.9 140.151H166.593C166.555 139.53 166.327 139.036 165.909 138.669C165.491 138.301 164.972 138.118 164.351 138.118ZM174.006 146.022C173.17 146.022 172.435 145.889 171.802 145.623C171.169 145.344 170.662 144.964 170.282 144.483C169.902 144.001 169.674 143.444 169.598 142.811H172.049C172.125 143.178 172.328 143.495 172.657 143.761C172.999 144.014 173.436 144.141 173.968 144.141C174.5 144.141 174.886 144.033 175.127 143.818C175.38 143.602 175.507 143.355 175.507 143.077C175.507 142.671 175.33 142.399 174.975 142.26C174.62 142.108 174.126 141.962 173.493 141.823C173.088 141.734 172.676 141.626 172.258 141.5C171.84 141.373 171.454 141.215 171.099 141.025C170.757 140.822 170.478 140.569 170.263 140.265C170.048 139.948 169.94 139.562 169.94 139.106C169.94 138.27 170.269 137.567 170.928 136.997C171.599 136.427 172.537 136.142 173.74 136.142C174.855 136.142 175.741 136.401 176.4 136.921C177.071 137.44 177.47 138.156 177.597 139.068H175.298C175.159 138.371 174.633 138.023 173.721 138.023C173.265 138.023 172.91 138.111 172.657 138.289C172.416 138.466 172.296 138.688 172.296 138.954C172.296 139.232 172.48 139.454 172.847 139.619C173.214 139.783 173.702 139.935 174.31 140.075C174.969 140.227 175.57 140.398 176.115 140.588C176.672 140.765 177.116 141.037 177.445 141.405C177.774 141.759 177.939 142.272 177.939 142.944C177.952 143.526 177.8 144.052 177.483 144.521C177.166 144.989 176.71 145.357 176.115 145.623C175.52 145.889 174.817 146.022 174.006 146.022Z" fill="white"/>
<rect x="0.0565796" y="0.80127" width="37.0566" height="37.0566" rx="1" fill="white"/>
<path d="M19.8201 18.0944V11.9183H17.3497V18.0944H11.1736V20.5649H17.3497V26.741H19.8201V20.5649H25.9962V18.0944H19.8201Z" fill="black"/>
<rect x="0.0565796" y="124.323" width="37.0566" height="37.0566" rx="5" fill="#004638"/>
<path d="M13.6343 150.787C12.5331 149.686 11.7831 148.283 11.4793 146.755C11.1754 145.228 11.3314 143.645 11.9274 142.206C12.5234 140.767 13.5327 139.537 14.8276 138.672C16.1226 137.807 17.6451 137.345 19.2025 137.345C20.7599 137.345 22.2824 137.807 23.5773 138.672C24.8723 139.537 25.8816 140.767 26.4776 142.206C27.0736 143.645 27.2296 145.228 26.9257 146.755C26.6219 148.283 25.8719 149.686 24.7707 150.787L26.0078 152.024C26.9029 151.132 27.6127 150.071 28.0965 148.903C28.5803 147.735 28.8285 146.483 28.8269 145.219C28.8269 139.904 24.5178 135.595 19.2025 135.595C13.8872 135.595 9.57806 139.904 9.57806 145.219C9.57806 147.877 10.6551 150.283 12.3971 152.024L13.6343 150.787Z" fill="#159643"/>
<path d="M23.5335 149.55C24.39 148.694 24.9732 147.602 25.2095 146.414C25.4458 145.226 25.3245 143.995 24.8609 142.876C24.3973 141.757 23.6123 140.8 22.6051 140.127C21.5979 139.454 20.4138 139.095 19.2025 139.095C17.9912 139.095 16.8071 139.454 15.7999 140.127C14.7927 140.8 14.0077 141.757 13.5442 142.876C13.0806 143.995 12.9593 145.226 13.1955 146.414C13.4318 147.602 14.015 148.694 14.8715 149.55L16.1096 148.313C15.4978 147.701 15.0811 146.922 14.9123 146.073C14.7435 145.224 14.8301 144.345 15.1612 143.545C15.4923 142.746 16.053 142.063 16.7725 141.582C17.4919 141.101 18.3377 140.845 19.203 140.845C20.0682 140.845 20.914 141.101 21.6334 141.582C22.3529 142.063 22.9136 142.746 23.2447 143.545C23.5758 144.345 23.6624 145.224 23.4936 146.073C23.3248 146.922 22.9082 147.701 22.2963 148.313L23.5335 149.55Z" fill="#159643"/>
<path d="M21.0583 147.075C21.4253 146.708 21.6752 146.24 21.7765 145.731C21.8777 145.222 21.8257 144.694 21.627 144.214C21.4284 143.735 21.0919 143.325 20.6603 143.037C20.2286 142.748 19.7212 142.594 19.2021 142.594C18.6829 142.594 18.1755 142.748 17.7438 143.037C17.3122 143.325 16.9757 143.735 16.7771 144.214C16.5784 144.694 16.5264 145.222 16.6276 145.731C16.7289 146.24 16.9788 146.708 17.3459 147.075L18.5839 145.838C18.4615 145.715 18.3782 145.56 18.3444 145.39C18.3106 145.22 18.3279 145.044 18.3941 144.884C18.4603 144.724 18.5725 144.588 18.7164 144.492C18.8603 144.395 19.0294 144.344 19.2025 144.344C19.3756 144.344 19.5447 144.395 19.6886 144.492C19.8325 144.588 19.9446 144.724 20.0109 144.884C20.0771 145.044 20.0944 145.22 20.0606 145.39C20.0268 145.56 19.9435 145.715 19.8211 145.838L21.0583 147.075Z" fill="#159643"/>
<defs>
<linearGradient id="paint0_linear_306_625" x1="0.0565796" y1="62.5623" x2="37.1132" y2="99.6189" gradientUnits="userSpaceOnUse">
<stop stop-color="#4000F4"/>
<stop offset="0.224829" stop-color="#603AED"/>
<stop offset="0.469313" stop-color="#7C6EE6"/>
<stop offset="0.657091" stop-color="#979FE1"/>
<stop offset="0.77684" stop-color="#A2B3DE"/>
<stop offset="0.889332" stop-color="#ADC8DC"/>
<stop offset="1" stop-color="#C0ECD7"/>
</linearGradient>
<clipPath id="clip0_306_625">
<path d="M13.397 76.9027C13.397 76.3504 13.8447 75.9027 14.397 75.9027H23.1434C23.6957 75.9027 24.1434 76.3504 24.1434 76.9027V85.6491C24.1434 86.2014 23.6957 86.6491 23.1434 86.6491H14.397C13.8447 86.6491 13.397 86.2014 13.397 85.6491V76.9027Z" fill="white"/>
</clipPath>
</defs>
</svg>
