<svg width="348" height="171" viewBox="0 0 348 171" fill="none" xmlns="http://www.w3.org/2000/svg">
<rect x="0.352173" y="0.109375" width="347.097" height="61.761" rx="6" fill="#282828"/>
<path d="M88.1096 33.9321V20.6321H90.5416V26.1611H96.5076V20.6321H98.9396V33.9321H96.5076V28.1371H90.5416V33.9321H88.1096ZM104.85 34.1601C103.938 34.1601 103.114 33.9511 102.38 33.5331C101.658 33.1151 101.081 32.5388 100.651 31.8041C100.233 31.0568 100.024 30.1955 100.024 29.2201C100.024 28.2448 100.239 27.3898 100.67 26.6551C101.1 25.9078 101.677 25.3251 102.399 24.9071C103.133 24.4891 103.957 24.2801 104.869 24.2801C105.768 24.2801 106.579 24.4891 107.301 24.9071C108.035 25.3251 108.612 25.9078 109.03 26.6551C109.46 27.3898 109.676 28.2448 109.676 29.2201C109.676 30.1955 109.46 31.0568 109.03 31.8041C108.612 32.5388 108.035 33.1151 107.301 33.5331C106.566 33.9511 105.749 34.1601 104.85 34.1601ZM104.85 32.0511C105.483 32.0511 106.034 31.8168 106.503 31.3481C106.971 30.8668 107.206 30.1575 107.206 29.2201C107.206 28.2828 106.971 27.5798 106.503 27.1111C106.034 26.6298 105.489 26.3891 104.869 26.3891C104.223 26.3891 103.665 26.6298 103.197 27.1111C102.741 27.5798 102.513 28.2828 102.513 29.2201C102.513 30.1575 102.741 30.8668 103.197 31.3481C103.665 31.8168 104.216 32.0511 104.85 32.0511ZM110.71 33.9321V24.5081H112.857L113.066 25.7811C113.37 25.3251 113.769 24.9641 114.263 24.6981C114.77 24.4195 115.352 24.2801 116.011 24.2801C117.468 24.2801 118.5 24.8438 119.108 25.9711C119.45 25.4518 119.906 25.0401 120.476 24.7361C121.059 24.4321 121.692 24.2801 122.376 24.2801C123.605 24.2801 124.548 24.6475 125.207 25.3821C125.866 26.1168 126.195 27.1935 126.195 28.6121V33.9321H123.763V28.8401C123.763 28.0295 123.605 27.4088 123.288 26.9781C122.984 26.5475 122.509 26.3321 121.863 26.3321C121.204 26.3321 120.672 26.5728 120.267 27.0541C119.874 27.5355 119.678 28.2068 119.678 29.0681V33.9321H117.246V28.8401C117.246 28.0295 117.088 27.4088 116.771 26.9781C116.454 26.5475 115.967 26.3321 115.308 26.3321C114.662 26.3321 114.136 26.5728 113.731 27.0541C113.338 27.5355 113.142 28.2068 113.142 29.0681V33.9321H110.71ZM131.943 34.1601C130.993 34.1601 130.151 33.9575 129.416 33.5521C128.681 33.1468 128.105 32.5768 127.687 31.8421C127.269 31.1075 127.06 30.2588 127.06 29.2961C127.06 28.3208 127.263 27.4531 127.668 26.6931C128.086 25.9331 128.656 25.3441 129.378 24.9261C130.113 24.4955 130.974 24.2801 131.962 24.2801C132.887 24.2801 133.704 24.4828 134.413 24.8881C135.122 25.2935 135.673 25.8508 136.066 26.5601C136.471 27.2568 136.674 28.0358 136.674 28.8971C136.674 29.0365 136.668 29.1821 136.655 29.3341C136.655 29.4861 136.649 29.6445 136.636 29.8091H129.473C129.524 30.5438 129.777 31.1201 130.233 31.5381C130.702 31.9561 131.265 32.1651 131.924 32.1651C132.418 32.1651 132.83 32.0575 133.159 31.8421C133.501 31.6141 133.754 31.3228 133.919 30.9681H136.389C136.212 31.5635 135.914 32.1081 135.496 32.6021C135.091 33.0835 134.584 33.4635 133.976 33.7421C133.381 34.0208 132.703 34.1601 131.943 34.1601ZM131.962 26.2561C131.367 26.2561 130.841 26.4271 130.385 26.7691C129.929 27.0985 129.638 27.6051 129.511 28.2891H134.204C134.166 27.6685 133.938 27.1745 133.52 26.8071C133.102 26.4398 132.583 26.2561 131.962 26.2561Z" fill="white"/>
<g clip-path="url(#clip0_306_611)">
<path d="M43.5849 33.6659C42.6021 33.6659 41.6596 34.0888 40.9646 34.8417C40.2697 35.5946 39.8793 36.6157 39.8793 37.6804V47.0822H47.2906V37.6804C47.2906 36.6157 46.9002 35.5946 46.2052 34.8417C45.5103 34.0888 44.5677 33.6659 43.5849 33.6659Z" fill="white"/>
<path d="M45.2376 16.047C44.784 15.6046 44.1953 15.3599 43.5849 15.3599C42.9746 15.3599 42.3858 15.6046 41.9322 16.047L28.7623 28.8879V42.8047C28.7623 43.9404 29.1787 45.0296 29.92 45.8326C30.6613 46.6357 31.6667 47.0868 32.715 47.0868H37.4088V37.6809C37.4088 35.9064 38.0595 34.2046 39.2177 32.9498C40.376 31.6951 41.9469 30.9902 43.5849 30.9902C45.2229 30.9902 46.7938 31.6951 47.9521 32.9498C49.1103 34.2046 49.761 35.9064 49.761 37.6809V47.0828H54.4548C55.5032 47.0828 56.5086 46.6317 57.2498 45.8286C57.9911 45.0256 58.4076 43.9364 58.4076 42.8007V28.8839L45.2376 16.047Z" fill="white"/>
</g>
<path d="M92.6506 95.9211C91.6753 95.9211 90.814 95.7564 90.0666 95.4271C89.3193 95.0851 88.7303 94.6038 88.2996 93.9831C87.869 93.3498 87.6473 92.5834 87.6346 91.6841H90.1996C90.225 92.3048 90.4466 92.8304 90.8646 93.2611C91.2953 93.6791 91.8843 93.8881 92.6316 93.8881C93.2776 93.8881 93.7906 93.7361 94.1706 93.4321C94.5506 93.1154 94.7406 92.6974 94.7406 92.1781C94.7406 91.6334 94.5696 91.2091 94.2276 90.9051C93.8983 90.6011 93.455 90.3541 92.8976 90.1641C92.3403 89.9741 91.745 89.7714 91.1116 89.5561C90.0856 89.2014 89.3003 88.7454 88.7556 88.1881C88.2236 87.6308 87.9576 86.8898 87.9576 85.9651C87.945 85.1798 88.1286 84.5084 88.5086 83.9511C88.9013 83.3811 89.4333 82.9441 90.1046 82.6401C90.776 82.3234 91.5486 82.1651 92.4226 82.1651C93.3093 82.1651 94.0883 82.3234 94.7596 82.6401C95.4436 82.9568 95.9756 83.4001 96.3556 83.9701C96.7483 84.5401 96.9573 85.2178 96.9826 86.0031H94.3796C94.367 85.5344 94.1833 85.1228 93.8286 84.7681C93.4866 84.4008 93.0053 84.2171 92.3846 84.2171C91.8526 84.2044 91.403 84.3374 91.0356 84.6161C90.681 84.8821 90.5036 85.2748 90.5036 85.7941C90.5036 86.2374 90.643 86.5921 90.9216 86.8581C91.2003 87.1114 91.5803 87.3268 92.0616 87.5041C92.543 87.6814 93.094 87.8714 93.7146 88.0741C94.3733 88.3021 94.975 88.5681 95.5196 88.8721C96.0643 89.1761 96.5013 89.5814 96.8306 90.0881C97.16 90.5821 97.3246 91.2218 97.3246 92.0071C97.3246 92.7038 97.1473 93.3498 96.7926 93.9451C96.438 94.5404 95.9123 95.0218 95.2156 95.3891C94.519 95.7438 93.664 95.9211 92.6506 95.9211ZM102.829 95.9211C101.879 95.9211 101.036 95.7184 100.302 95.3131C99.5669 94.9078 98.9905 94.3378 98.5725 93.6031C98.1545 92.8684 97.9455 92.0198 97.9455 91.0571C97.9455 90.0818 98.1482 89.2141 98.5535 88.4541C98.9715 87.6941 99.5415 87.1051 100.264 86.6871C100.998 86.2564 101.86 86.0411 102.848 86.0411C103.772 86.0411 104.589 86.2438 105.299 86.6491C106.008 87.0544 106.559 87.6118 106.952 88.3211C107.357 89.0178 107.56 89.7968 107.56 90.6581C107.56 90.7974 107.553 90.9431 107.541 91.0951C107.541 91.2471 107.534 91.4054 107.522 91.5701H100.359C100.409 92.3048 100.663 92.8811 101.119 93.2991C101.587 93.7171 102.151 93.9261 102.81 93.9261C103.304 93.9261 103.715 93.8184 104.045 93.6031C104.387 93.3751 104.64 93.0838 104.805 92.7291H107.275C107.097 93.3244 106.8 93.8691 106.382 94.3631C105.976 94.8444 105.47 95.2244 104.862 95.5031C104.266 95.7818 103.589 95.9211 102.829 95.9211ZM102.848 88.0171C102.252 88.0171 101.727 88.1881 101.271 88.5301C100.815 88.8594 100.523 89.3661 100.397 90.0501H105.09C105.052 89.4294 104.824 88.9354 104.406 88.5681C103.988 88.2008 103.468 88.0171 102.848 88.0171ZM111.714 95.9211C110.903 95.9211 110.238 95.7944 109.719 95.5411C109.2 95.2751 108.813 94.9268 108.56 94.4961C108.307 94.0654 108.18 93.5904 108.18 93.0711C108.18 92.1971 108.522 91.4878 109.206 90.9431C109.89 90.3984 110.916 90.1261 112.284 90.1261H114.678V89.8981C114.678 89.2521 114.494 88.7771 114.127 88.4731C113.76 88.1691 113.304 88.0171 112.759 88.0171C112.265 88.0171 111.834 88.1374 111.467 88.3781C111.1 88.6061 110.872 88.9481 110.783 89.4041H108.408C108.471 88.7201 108.699 88.1248 109.092 87.6181C109.497 87.1114 110.017 86.7251 110.65 86.4591C111.283 86.1804 111.993 86.0411 112.778 86.0411C114.121 86.0411 115.178 86.3768 115.951 87.0481C116.724 87.7194 117.11 88.6694 117.11 89.8981V95.6931H115.039L114.811 94.1731C114.532 94.6798 114.14 95.0978 113.633 95.4271C113.139 95.7564 112.499 95.9211 111.714 95.9211ZM112.265 94.0211C112.962 94.0211 113.5 93.7931 113.88 93.3371C114.273 92.8811 114.52 92.3174 114.621 91.6461H112.55C111.904 91.6461 111.442 91.7664 111.163 92.0071C110.884 92.2351 110.745 92.5201 110.745 92.8621C110.745 93.2294 110.884 93.5144 111.163 93.7171C111.442 93.9198 111.809 94.0211 112.265 94.0211ZM118.291 95.6931V86.2691H120.457L120.685 88.0361C121.027 87.4281 121.489 86.9468 122.072 86.5921C122.667 86.2248 123.364 86.0411 124.162 86.0411V88.6061H123.478C122.946 88.6061 122.471 88.6884 122.053 88.8531C121.635 89.0178 121.305 89.3028 121.065 89.7081C120.837 90.1134 120.723 90.6771 120.723 91.3991V95.6931H118.291ZM129.134 95.9211C128.171 95.9211 127.323 95.7121 126.588 95.2941C125.853 94.8761 125.271 94.2934 124.84 93.5461C124.422 92.7988 124.213 91.9438 124.213 90.9811C124.213 90.0184 124.422 89.1634 124.84 88.4161C125.271 87.6688 125.853 87.0861 126.588 86.6681C127.323 86.2501 128.171 86.0411 129.134 86.0411C130.337 86.0411 131.351 86.3578 132.174 86.9911C132.997 87.6118 133.523 88.4731 133.751 89.5751H131.186C131.059 89.1191 130.806 88.7644 130.426 88.5111C130.059 88.2451 129.622 88.1121 129.115 88.1121C128.444 88.1121 127.874 88.3654 127.405 88.8721C126.936 89.3788 126.702 90.0818 126.702 90.9811C126.702 91.8804 126.936 92.5834 127.405 93.0901C127.874 93.5968 128.444 93.8501 129.115 93.8501C129.622 93.8501 130.059 93.7234 130.426 93.4701C130.806 93.2168 131.059 92.8558 131.186 92.3871H133.751C133.523 93.4511 132.997 94.3061 132.174 94.9521C131.351 95.5981 130.337 95.9211 129.134 95.9211ZM134.77 95.6931V82.0131H137.202V87.7131C137.518 87.1938 137.943 86.7884 138.475 86.4971C139.019 86.1931 139.64 86.0411 140.337 86.0411C141.502 86.0411 142.401 86.4084 143.035 87.1431C143.681 87.8778 144.004 88.9544 144.004 90.3731V95.6931H141.591V90.6011C141.591 89.7904 141.426 89.1698 141.097 88.7391C140.78 88.3084 140.273 88.0931 139.577 88.0931C138.893 88.0931 138.323 88.3338 137.867 88.8151C137.423 89.2964 137.202 89.9678 137.202 90.8291V95.6931H134.77Z" fill="white"/>
<g clip-path="url(#clip1_306_611)">
<path d="M58.4073 105.828L50.6723 98.0929C52.6816 95.6356 53.6695 92.5 53.4316 89.3347C53.1938 86.1694 51.7485 83.2166 49.3946 81.0871C47.0407 78.9575 43.9584 77.8142 40.7852 77.8935C37.612 77.9729 34.5906 79.2688 32.3461 81.5133C30.1016 83.7578 28.8057 86.7792 28.7263 89.9524C28.647 93.1256 29.7903 96.2079 31.9199 98.5618C34.0494 100.916 37.0022 102.361 40.1675 102.599C43.3328 102.837 46.4684 101.849 48.9257 99.8395L56.6607 107.574L58.4073 105.828ZM41.1142 100.163C39.1598 100.163 37.2492 99.5836 35.6242 98.4978C33.9992 97.4119 32.7326 95.8686 31.9847 94.063C31.2367 92.2573 31.041 90.2704 31.4223 88.3536C31.8036 86.4367 32.7448 84.6759 34.1268 83.2939C35.5087 81.9119 37.2695 80.9708 39.1864 80.5895C41.1033 80.2082 43.0901 80.4039 44.8958 81.1518C46.7015 81.8998 48.2448 83.1663 49.3306 84.7914C50.4164 86.4164 50.996 88.327 50.996 90.2814C50.993 92.9013 49.951 95.413 48.0984 97.2656C46.2459 99.1181 43.7341 100.16 41.1142 100.163Z" fill="white"/>
</g>
<path d="M91.5486 157.454V152.723L87.0836 144.154H89.8386L92.7836 150.291L95.7096 144.154H98.4266L93.9806 152.723V157.454H91.5486ZM101.621 157.682C100.709 157.682 99.8858 157.473 99.1512 157.055C98.4292 156.637 97.8528 156.061 97.4222 155.326C97.0042 154.579 96.7952 153.717 96.7952 152.742C96.7952 151.767 97.0105 150.912 97.4412 150.177C97.8718 149.43 98.4482 148.847 99.1702 148.429C99.9048 148.011 100.728 147.802 101.64 147.802C102.539 147.802 103.35 148.011 104.072 148.429C104.807 148.847 105.383 149.43 105.801 150.177C106.232 150.912 106.447 151.767 106.447 152.742C106.447 153.717 106.232 154.579 105.801 155.326C105.383 156.061 104.807 156.637 104.072 157.055C103.337 157.473 102.52 157.682 101.621 157.682ZM101.621 155.573C102.254 155.573 102.805 155.339 103.274 154.87C103.743 154.389 103.977 153.679 103.977 152.742C103.977 151.805 103.743 151.102 103.274 150.633C102.805 150.152 102.261 149.911 101.64 149.911C100.994 149.911 100.437 150.152 99.9682 150.633C99.5122 151.102 99.2842 151.805 99.2842 152.742C99.2842 153.679 99.5122 154.389 99.9682 154.87C100.437 155.339 100.988 155.573 101.621 155.573ZM111.016 157.682C109.838 157.682 108.926 157.315 108.28 156.58C107.646 155.845 107.33 154.769 107.33 153.35V148.03H109.743V153.122C109.743 153.933 109.907 154.553 110.237 154.984C110.566 155.415 111.085 155.63 111.795 155.63C112.466 155.63 113.017 155.389 113.448 154.908C113.891 154.427 114.113 153.755 114.113 152.894V148.03H116.545V157.454H114.398L114.208 155.858C113.916 156.415 113.492 156.859 112.935 157.188C112.39 157.517 111.75 157.682 111.016 157.682ZM117.901 157.454V148.03H120.067L120.295 149.797C120.637 149.189 121.1 148.708 121.682 148.353C122.278 147.986 122.974 147.802 123.772 147.802V150.367H123.088C122.556 150.367 122.081 150.449 121.663 150.614C121.245 150.779 120.916 151.064 120.675 151.469C120.447 151.874 120.333 152.438 120.333 153.16V157.454H117.901ZM127.739 157.454V144.154H130.171V155.554H136.061V157.454H127.739ZM138.318 146.567C137.874 146.567 137.507 146.434 137.216 146.168C136.937 145.902 136.798 145.566 136.798 145.161C136.798 144.756 136.937 144.426 137.216 144.173C137.507 143.907 137.874 143.774 138.318 143.774C138.761 143.774 139.122 143.907 139.401 144.173C139.692 144.426 139.838 144.756 139.838 145.161C139.838 145.566 139.692 145.902 139.401 146.168C139.122 146.434 138.761 146.567 138.318 146.567ZM137.102 157.454V148.03H139.534V157.454H137.102ZM146.518 157.682C145.809 157.682 145.188 157.549 144.656 157.283C144.124 157.017 143.693 156.643 143.364 156.162L143.098 157.454H140.932V143.774H143.364V149.379C143.668 148.961 144.067 148.594 144.561 148.277C145.068 147.96 145.72 147.802 146.518 147.802C147.405 147.802 148.196 148.017 148.893 148.448C149.59 148.879 150.141 149.468 150.546 150.215C150.951 150.962 151.154 151.811 151.154 152.761C151.154 153.711 150.951 154.56 150.546 155.307C150.141 156.042 149.59 156.624 148.893 157.055C148.196 157.473 147.405 157.682 146.518 157.682ZM146.005 155.554C146.778 155.554 147.417 155.294 147.924 154.775C148.431 154.256 148.684 153.584 148.684 152.761C148.684 151.938 148.431 151.26 147.924 150.728C147.417 150.196 146.778 149.93 146.005 149.93C145.22 149.93 144.574 150.196 144.067 150.728C143.573 151.247 143.326 151.919 143.326 152.742C143.326 153.565 143.573 154.243 144.067 154.775C144.574 155.294 145.22 155.554 146.005 155.554ZM152.187 157.454V148.03H154.353L154.581 149.797C154.923 149.189 155.385 148.708 155.968 148.353C156.563 147.986 157.26 147.802 158.058 147.802V150.367H157.374C156.842 150.367 156.367 150.449 155.949 150.614C155.531 150.779 155.201 151.064 154.961 151.469C154.733 151.874 154.619 152.438 154.619 153.16V157.454H152.187ZM161.829 157.682C161.018 157.682 160.353 157.555 159.834 157.302C159.314 157.036 158.928 156.688 158.675 156.257C158.421 155.826 158.295 155.351 158.295 154.832C158.295 153.958 158.637 153.249 159.321 152.704C160.005 152.159 161.031 151.887 162.399 151.887H164.793V151.659C164.793 151.013 164.609 150.538 164.242 150.234C163.874 149.93 163.418 149.778 162.874 149.778C162.38 149.778 161.949 149.898 161.582 150.139C161.214 150.367 160.986 150.709 160.898 151.165H158.523C158.586 150.481 158.814 149.886 159.207 149.379C159.612 148.872 160.131 148.486 160.765 148.22C161.398 147.941 162.107 147.802 162.893 147.802C164.235 147.802 165.293 148.138 166.066 148.809C166.838 149.48 167.225 150.43 167.225 151.659V157.454H165.154L164.926 155.934C164.647 156.441 164.254 156.859 163.748 157.188C163.254 157.517 162.614 157.682 161.829 157.682ZM162.38 155.782C163.076 155.782 163.615 155.554 163.995 155.098C164.387 154.642 164.634 154.078 164.736 153.407H162.665C162.019 153.407 161.556 153.527 161.278 153.768C160.999 153.996 160.86 154.281 160.86 154.623C160.86 154.99 160.999 155.275 161.278 155.478C161.556 155.681 161.924 155.782 162.38 155.782ZM168.406 157.454V148.03H170.572L170.8 149.797C171.142 149.189 171.604 148.708 172.187 148.353C172.782 147.986 173.479 147.802 174.277 147.802V150.367H173.593C173.061 150.367 172.586 150.449 172.168 150.614C171.75 150.779 171.42 151.064 171.18 151.469C170.952 151.874 170.838 152.438 170.838 153.16V157.454H168.406ZM175.977 161.634L178.162 156.827H177.592L173.925 148.03H176.566L179.207 154.661L181.962 148.03H184.546L178.561 161.634H175.977Z" fill="white"/>
<rect x="29.9975" y="142.16" width="1.23522" height="28.4101" fill="white"/>
<rect x="38.644" y="142.16" width="1.23522" height="28.4101" fill="white"/>
<rect x="44.8201" y="142.655" width="1.23522" height="29.3017" transform="rotate(-23.634 44.8201 142.655)" fill="white"/>
<defs>
<clipPath id="clip0_306_611">
<rect width="29.6453" height="32.1157" fill="white" transform="translate(28.7623 14.9321)"/>
</clipPath>
<clipPath id="clip1_306_611">
<rect width="29.6453" height="29.6453" fill="white" transform="translate(28.7623 77.9283)"/>
</clipPath>
</defs>
</svg>
