<svg width="131" height="40" viewBox="0 0 131 40" fill="none" xmlns="http://www.w3.org/2000/svg" >
<g clip-path="url(#clip0_8_290)">
<path d="M0.924162 20.1176C0.924162 30.9412 9.7037 39.8824 20.3316 39.8824C30.9594 39.8824 39.739 30.9412 39.739 20.1176C39.739 9.29412 30.9594 0.470589 20.3316 0.470589C9.7037 0.470589 0.924162 9.29412 0.924162 20.1176ZM27.4938 29.2941C22.9885 26.4706 17.2125 25.7647 10.5123 27.2941C8.89506 27.5294 8.66402 25.1765 10.0503 24.9412C17.4436 23.1765 23.6817 24 28.7645 27.1765C30.0353 28 28.7645 30 27.4938 29.2941ZM29.4577 24C24.2593 20.7059 16.2884 19.7647 10.1658 21.6471C8.20194 22.2353 7.50882 19.1765 9.35714 18.7059C16.4039 16.5882 25.0679 17.6471 31.075 21.4118C32.6922 22.4706 31.075 25.0588 29.4577 24ZM9.24162 15.6471C7.27778 16.3529 6.00705 12.9412 8.20194 12.1176C15.0176 10 26.5697 10.3529 33.7319 14.7059C35.6958 15.7647 33.8474 19.0588 31.7681 17.8824C25.53 14.1176 15.1332 13.7647 9.24162 15.6471ZM53.0238 26.3529C51.06 26.3529 49.2116 25.6471 47.5944 24C47.4788 24 47.4788 24.1176 47.4788 24.1176L45.6305 26.3529C45.515 26.4706 45.515 26.5882 45.6305 26.7059C47.7099 28.5882 50.2513 29.5294 53.0238 29.5294C56.9515 29.5294 59.3774 27.2941 59.3774 24C59.3774 21.1765 57.6446 19.6471 53.6014 18.5882C50.2513 17.7647 49.6737 17.1765 49.6737 16C49.6737 14.8235 50.8289 14.1176 52.3307 14.1176C53.8324 14.1176 55.2187 14.7059 56.836 15.8824C56.836 15.8824 56.9515 16 57.067 16C57.1825 16 57.1825 15.8824 57.1825 15.8824L58.7998 13.5294C58.9153 13.4118 58.9153 13.4118 58.7998 13.2941C56.9515 11.7647 54.7566 10.9412 52.3307 10.9412C48.7496 10.9412 46.2081 13.1765 46.2081 16.3529C46.2081 19.7647 48.5185 20.8235 52.2152 21.7647C55.4497 22.4706 55.9118 23.1765 55.9118 24.3529C55.9118 25.6471 54.7566 26.3529 53.0238 26.3529ZM63.9982 17.2941V15.7647C63.9982 15.6471 63.8827 15.5294 63.7672 15.5294H60.7637C60.6481 15.5294 60.5326 15.6471 60.5326 15.7647V33.0588C60.5326 33.1765 60.6481 33.2941 60.7637 33.2941H63.7672C63.8827 33.2941 63.9982 33.1765 63.9982 33.0588V27.6471C65.1534 28.9412 66.4242 29.5294 68.157 29.5294C71.276 29.5294 74.3951 27.0588 74.3951 22.3529C74.3951 17.6471 71.276 15.2941 68.157 15.2941C66.4242 15.2941 65.1534 15.8824 63.9982 17.2941ZM67.4638 26.4706C65.3845 26.4706 63.8827 24.7059 63.8827 22.3529C63.8827 20 65.3845 18.3529 67.4638 18.3529C69.5432 18.3529 70.9294 20 70.9294 22.3529C70.9294 24.7059 69.5432 26.4706 67.4638 26.4706ZM75.3192 22.4706C75.3192 26.4706 78.4383 29.5294 82.4815 29.5294C86.5247 29.5294 89.6437 26.3529 89.6437 22.3529C89.6437 18.3529 86.6402 15.2941 82.597 15.2941C78.5538 15.2941 75.3192 18.4706 75.3192 22.4706ZM78.7848 22.3529C78.7848 20 80.2866 18.3529 82.4815 18.3529C84.6764 18.3529 86.2936 20.1176 86.2936 22.4706C86.2936 24.8235 84.7919 26.4706 82.597 26.4706C80.4021 26.4706 78.7848 24.7059 78.7848 22.3529ZM94.9577 15.5294V12.1176C94.9577 12 94.9577 11.8824 94.8421 11.8824H91.8386C91.7231 11.8824 91.6076 12 91.6076 12.1176V15.5294H90.1058C89.9903 15.5294 89.8748 15.6471 89.8748 15.7647V18.3529C89.8748 18.4706 89.9903 18.5882 90.1058 18.5882H91.6076V25.4118C91.6076 28.1176 92.8783 29.5294 95.5353 29.5294C96.5749 29.5294 97.6146 29.2941 98.4233 28.8235C98.5388 28.8235 98.5388 28.7059 98.5388 28.5882V26.1176C98.5388 26 98.5388 25.8824 98.4233 25.8824H98.1922C97.6146 26.2353 96.9215 26.3529 96.3439 26.3529C95.4197 26.3529 94.9577 25.8824 94.9577 24.9412V18.5882H98.4233C98.5388 18.5882 98.6543 18.4706 98.6543 18.3529V15.7647C98.6543 15.6471 98.5388 15.5294 98.4233 15.5294H94.9577ZM109.86 15.1765C109.86 13.8824 110.322 13.4118 111.362 13.4118C111.939 13.4118 112.517 13.4118 113.094 13.6471H113.21C113.21 13.6471 113.325 13.5294 113.325 13.4118V10.9412C113.325 10.8235 113.325 10.7059 113.21 10.7059C112.632 10.4706 111.824 10.3529 110.668 10.3529C107.896 10.3529 106.51 12 106.51 14.9412V15.5294H105.008C104.892 15.5294 104.777 15.6471 104.777 15.7647V18.3529C104.777 18.4706 104.892 18.5882 105.008 18.5882H106.51V29.0588C106.51 29.1765 106.625 29.2941 106.741 29.2941H109.744C109.86 29.2941 109.86 29.1765 109.86 29.0588V18.5882H112.748L117.022 29.0588C116.56 30.1176 116.098 30.3529 115.405 30.3529C114.827 30.3529 114.25 30.2353 113.672 29.8824H113.556L113.441 30L112.401 32.2353C112.401 32.3529 112.401 32.5882 112.517 32.5882C113.556 33.1765 114.481 33.4118 115.636 33.4118C117.831 33.4118 119.101 32.3529 120.141 29.5294L125.339 15.8824V15.6471C125.339 15.5294 125.224 15.5294 125.108 15.5294H121.989C121.874 15.5294 121.874 15.6471 121.874 15.7647L118.639 24.9412L115.174 15.7647C115.174 15.6471 115.058 15.5294 114.943 15.5294H109.86V15.1765ZM100.272 15.5294C100.156 15.5294 100.041 15.6471 100.041 15.7647V29.0588C100.041 29.1765 100.156 29.2941 100.272 29.2941H103.275C103.391 29.2941 103.391 29.1765 103.391 29.0588V15.7647C103.391 15.6471 103.391 15.5294 103.275 15.5294H100.272ZM99.5785 11.6471C99.5785 12.8235 100.618 13.8824 101.773 13.8824C102.929 13.8824 103.853 12.8235 103.853 11.6471C103.853 10.4706 102.929 9.52941 101.773 9.52941C100.618 9.52941 99.5785 10.4706 99.5785 11.6471ZM127.881 19.7647C129.036 19.7647 130.076 18.8235 130.076 17.6471C130.076 16.4706 129.036 15.5294 127.881 15.5294C126.726 15.5294 125.802 16.4706 125.802 17.6471C125.802 18.8235 126.726 19.7647 127.881 19.7647ZM127.881 15.7647C128.921 15.7647 129.845 16.5882 129.845 17.6471C129.845 18.7059 128.921 19.5294 127.881 19.5294C126.841 19.5294 126.033 18.7059 126.033 17.6471C126.033 16.5882 126.841 15.7647 127.881 15.7647ZM128.343 17.8824C128.69 17.7647 128.921 17.5294 128.921 17.1765C128.921 16.7059 128.459 16.4706 127.996 16.4706H127.072V18.7059H127.534V18H127.996L128.459 18.7059H129.036L128.343 17.8824ZM127.996 16.8235C128.228 16.8235 128.459 16.9412 128.459 17.1765C128.459 17.4118 128.228 17.5294 127.996 17.5294H127.534V16.8235H127.996Z" fill="white"/>
</g>
<defs>
<clipPath id="clip0_8_290">
<rect width="131" height="40" fill="white"/>
</clipPath>
</defs>
</svg>
